<svg xmlns="http://www.w3.org/2000/svg" xmlns:xlink="http://www.w3.org/1999/xlink" width="1920" height="1080" viewBox="0 0 1920 1080">
  <defs>
    <filter id="Ellipse_2" x="827" y="-119" width="1468" height="1435" filterUnits="userSpaceOnUse">
      <feOffset input="SourceAlpha"/>
      <feGaussianBlur stdDeviation="15" result="blur"/>
      <feFlood flood-color="#b4c3cb"/>
      <feComposite operator="in" in2="blur"/>
      <feComposite in="SourceGraphic"/>
    </filter>
    <clipPath id="clip-Web_1920_1">
      <rect width="1920" height="1080"/>
    </clipPath>
  </defs>
  <g id="Web_1920_1" data-name="Web 1920 – 1" clip-path="url(#clip-Web_1920_1)">
    <rect width="1920" height="1080" fill="#fff"/>
    <path id="Path_3" data-name="Path 3" d="M0,0H1920V1080H0Z" fill="#1f1b24"/>
    <g id="mesic" transform="translate(-56 46.388)">
      <g id="Ellipse_1" data-name="Ellipse 1" transform="translate(1528 21.612)" fill="#bb86fc" stroke="#707070" stroke-width="1">
        <circle cx="183.5" cy="183.5" r="183.5" stroke="none"/>
        <circle cx="183.5" cy="183.5" r="183" fill="none"/>
      </g>
      <g transform="matrix(1, 0, 0, 1, 56, -46.39)" filter="url(#Ellipse_2)">
        <ellipse id="Ellipse_2-2" data-name="Ellipse 2" cx="689" cy="672.5" rx="689" ry="672.5" transform="translate(872 -74)" fill="#d2d3d5"/>
      </g>
      <g id="Ellipse_3" data-name="Ellipse 3" transform="translate(-410 -84.388)" fill="#bb86fc" stroke="#707070" stroke-width="1">
        <circle cx="84.5" cy="84.5" r="84.5" stroke="none"/>
        <circle cx="84.5" cy="84.5" r="84" fill="none"/>
      </g>
      <circle id="Ellipse_4" data-name="Ellipse 4" cx="75.5" cy="75.5" r="75.5" transform="translate(1000 374.612)" fill="#b3b3b3"/>
      <circle id="Ellipse_19" data-name="Ellipse 19" cx="45.5" cy="45.5" r="45.5" transform="translate(1483 519.612)" fill="#b3b3b3"/>
      <circle id="Ellipse_20" data-name="Ellipse 20" cx="98" cy="98" r="98" transform="translate(1790 883.612)" fill="#b3b3b3"/>
      <circle id="Ellipse_8" data-name="Ellipse 8" cx="183" cy="183" r="183" transform="translate(1295 22.612)" fill="#b3b3b3"/>
      <circle id="Ellipse_6" data-name="Ellipse 6" cx="23" cy="23" r="23" transform="translate(1000 565.612)" fill="#b3b3b3"/>
      <circle id="Ellipse_7" data-name="Ellipse 7" cx="23" cy="23" r="23" transform="translate(1099 610.612)" fill="#b3b3b3"/>
      <ellipse id="Ellipse_5" data-name="Ellipse 5" cx="111.5" cy="107" rx="111.5" ry="107" transform="translate(1098.954 760.355) rotate(-3)" fill="#b3b3b3"/>
    </g>
    <g id="planeta" transform="translate(-341.846 -308.51)" opacity="0.63">
      <circle id="Ellipse_18" data-name="Ellipse 18" cx="97.021" cy="97.021" r="97.021" transform="translate(274.742 277.51)" fill="#ffb029"/>
      <path id="Path_4" data-name="Path 4" d="M398.917,281.366c-2.916,2.67-7.981,4.858-16.648,3.149-17.65-3.48-13.175,17.009-13.175,17.009s-2.735,15.308,7.209,15.308,0,12.927,0,12.927-5.718,11.932-22.125-4.475-33.062,0-33.062,0-13.673.746-13.673-13.921-4.475.994-4.475.994-3.006,1.219-5.169-.611a96.613,96.613,0,0,0-23.009,59.862l4.027,11.582a10.91,10.91,0,0,0,9.8,4.052l3.273-1.459s-3.932,3.459-2.055,3.238,11.163-9.27,14.475-5.249-3.43,12.421,3.844,12.953,10.646,2.839,15.732-.237,6.447-6.8,5.855-8.694,9.463-6.269,8.7,2.188S334,403.526,330.4,405.715s-13.13,4.14-17.152,2.957-15.554-1.3-15.554-13.662-5.619-3.726-5.619-3.726-4.376,7.452-9.7,2.129l-3.555-10.223c-3.2-3.945-3.9-9.547-4.041-11.222q-.033,1.278-.034,2.563A97.022,97.022,0,0,0,451.507,429.8c-4.353-5.365-13.6-24.381-14.021-27.715-.481-3.851-40.681-18.053-40.681-18.053L377.066,364.29l22.628-13s19.738,2.407,18.776,8.184,10.35,15.166,10.35,15.166l32.979-1.2,6.977,1.8c0-.235.009-.469.009-.7A97.062,97.062,0,0,0,398.917,281.366ZM385.3,450.15a10.768,10.768,0,1,1-10.768-10.768A10.769,10.769,0,0,1,385.3,450.15Z" fill="#fa970e"/>
      <path id="Path_5" data-name="Path 5" d="M352.683,437.985c-5.032,21.321,26.539,27.145,30.327,23.946C412.67,436.884,357.716,416.665,352.683,437.985Z" fill="#ffb029"/>
      <path id="Path_6" data-name="Path 6" d="M352.683,437.985c-5.032,21.321,26.539,27.145,30.327,23.946C412.67,436.884,357.716,416.665,352.683,437.985Z" fill="#ffb029"/>
      <path id="Path_7" data-name="Path 7" d="M355.441,432.923c6.624.578,32.408-3.03,32.854,14.821.319,12.732-9.934,14.95-10.08,14.983,2.315.1,4.069-.183,4.8-.8C409.791,439.314,367.59,420.639,355.441,432.923Z" fill="#f7a725"/>
      <path id="Path_8" data-name="Path 8" d="M468.777,373.912c0,.206.008.412.008.619a97.127,97.127,0,0,1-3.192,24.711c24.579,11.472,38.889,20.207,36.738,23.266-4.091,5.818-66.166-11.1-138.647-37.786s-127.923-53.037-123.832-58.855c2.063-2.935,18.884-.083,44.343,6.886A97.1,97.1,0,0,1,296.688,313.1c-47.915-10.268-83.584-11.02-91.424.13-12.628,17.96,51.679,59.965,143.634,93.821s176.737,46.744,189.365,28.785C547.091,423.278,518.309,398.971,468.777,373.912Z" fill="#8b5e0f" opacity="0.88"/>
    </g>
  </g>
</svg>
