<svg xmlns="http://www.w3.org/2000/svg" xmlns:xlink="http://www.w3.org/1999/xlink" viewBox="0 0 356.14 365.13"><defs><style>.cls-1{fill:#f89857;}.cls-2{fill:#343535;}.cls-3{fill:#434343;}.cls-4{fill:#5e6160;}.cls-5{fill:url(#Nepojmenovaný_přechod_10);}.cls-6{fill:#dfeeea;}.cls-7{fill:#37413e;}.cls-8{fill:#7a6952;}.cls-9{fill:#0d0c0a;}.cls-10{fill:#dce5e0;}.cls-11{fill:#610a0d;}.cls-12{fill:#fff;}.cls-13{fill:#4d4e4e;}.cls-14{fill:#7f7f7f;}.cls-15{fill:#aeadae;}.cls-16{fill:#83766e;}.cls-17{fill:#33262a;}.cls-18{fill:#717373;}.cls-19{fill:#ef8754;}.cls-20{fill:#636464;}.cls-21{fill:#3ca5dd;}.cls-22{fill:#2b8ec4;}</style><linearGradient id="Nepojmenovaný_přechod_10" x1="209.49" y1="107.94" x2="299.53" y2="107.94" gradientUnits="userSpaceOnUse"><stop offset="0" stop-color="#a4bf3f"/><stop offset="0.82" stop-color="#a2bc40"/></linearGradient></defs><g id="Vrstva_2" data-name="Vrstva 2"><g id="Vrstva_1-2" data-name="Vrstva 1"><path class="cls-1" d="M207.66,194s-26.39,36.72-29.76,77.57,9.19,56.17,9.19,56.17,3.06,5.11,7,4.42a44.23,44.23,0,0,0-7.69,23.05s10.38,15.32,41.19,5.48a1.06,1.06,0,0,0,.53-.35c1.51-1.75,11-12.49,21.06-17.79,0,0,5-1.19-.91-18.9s-10.87-51.91,1.22-50,16.22-2.56,17.6,8.76-3.06,35.84-7.19,48.26,8.41,18.73,8.41,18.73a31.5,31.5,0,0,1,13.16,13.27s9.95,6.81,38.11-1.87c0,0,9.49-1-2.45-26.89,0,0,4.74.85,11-22.3s5.81-12.09,4.44-35.92-7.2-29.78-7.2-29.78S314.86,213,301.09,194Z"/><path class="cls-2" d="M283,208.64s6.13,38.81,17.7,59.07l-1,4.08s-13.17-22.63-20.91-62.37C278.6,208.73,283,208.64,283,208.64Z"/><path class="cls-2" d="M231,208.51s-7.95,41.92-19.53,62.17l2.85,1s13.16-22.63,20.91-62.37C235.38,208.61,231,208.51,231,208.51Z"/><path class="cls-3" d="M159.75,101.2c0,53.38,42.68,83.44,95.33,83.44s95.34-30.06,95.34-83.44S307.73,4.55,255.08,4.55,159.75,47.82,159.75,101.2Z"/><path class="cls-4" d="M253.35,190.54a106.73,106.73,0,0,0,45.68-9.8c-8-17.82-25.44-30.18-45.68-30.18s-37.68,12.36-45.69,30.18A106.81,106.81,0,0,0,253.35,190.54Z"/><rect class="cls-5" x="209.49" y="29.6" width="90.04" height="156.68" rx="45.02"/><ellipse class="cls-6" cx="220.28" cy="111.3" rx="17.36" ry="20.3"/><ellipse class="cls-7" cx="212.98" cy="117.97" rx="5.32" ry="5.75"/><ellipse class="cls-6" cx="290.17" cy="112.22" rx="15.55" ry="19.63"/><ellipse class="cls-7" cx="288.24" cy="120.02" rx="5.32" ry="5.75"/><path class="cls-8" d="M207.1,70.89c2.89,17,26.72-15.2,57.87-8,25,5.78,32.34,26.21,38.13,7.32s-19.49-47.56-46.18-45C215.63,29.24,204.2,53.85,207.1,70.89Z"/><path class="cls-9" d="M260.92,150.29c.51.08,1,.17,1.51.27C261.93,150.46,261.43,150.37,260.92,150.29Z"/><path class="cls-9" d="M258.82,150c.62.06,1.23.14,1.84.23C260.05,150.16,259.44,150.08,258.82,150Z"/><path class="cls-9" d="M245.55,150.82c.53-.11,1.06-.22,1.58-.31C246.61,150.6,246.08,150.71,245.55,150.82Z"/><path class="cls-9" d="M262.93,150.66l1.25.28Z"/><path class="cls-9" d="M264.65,151.06q.71.18,1.38.39Q265.36,151.24,264.65,151.06Z"/><path class="cls-9" d="M247.9,150.38c.52-.09,1-.16,1.56-.22C249,150.22,248.42,150.29,247.9,150.38Z"/><path class="cls-9" d="M252.45,149.88l1.8-.06Z"/><path class="cls-9" d="M250.09,150.08c.71-.08,1.42-.15,2.11-.19C251.51,149.93,250.8,150,250.09,150.08Z"/><path class="cls-9" d="M266.25,151.51c.54.17,1.08.34,1.59.52C267.33,151.85,266.79,151.68,266.25,151.51Z"/><path class="cls-9" d="M256.92,149.87l1.43.11Z"/><path class="cls-9" d="M254.89,149.82l1.38,0Z"/><path class="cls-9" d="M235.86,153.69l1.88-.66Z"/><path class="cls-9" d="M237.93,153c.6-.2,1.22-.4,1.86-.59C239.15,152.56,238.53,152.76,237.93,153Z"/><path class="cls-9" d="M271.05,153.33c.94.43,1.82.87,2.65,1.33C272.87,154.2,272,153.76,271.05,153.33Z"/><path class="cls-9" d="M282.9,163a3.84,3.84,0,0,0-1.13-2.44,37.49,37.49,0,0,0-8.07-5.91H234v-.24c.58-.24,1.2-.48,1.84-.71a47.29,47.29,0,0,0-7.09,3.2,3.89,3.89,0,0,0,2.69,7.2c.64-.12,1.31-.23,2-.34v-.17a1.89,1.89,0,0,1,1.89-1.88h38.63a1.79,1.79,0,0,1,1.8,1.79v3.11c1,.26,2,.53,2.95.81C282.74,168.62,283.05,165.11,282.9,163Z"/><path class="cls-9" d="M269.64,152.72c.4.16.78.33,1.16.5C270.42,153.05,270,152.88,269.64,152.72Z"/><path class="cls-9" d="M242.52,151.56c.78-.22,1.56-.41,2.32-.59C244.08,151.15,243.3,151.34,242.52,151.56Z"/><path class="cls-9" d="M268,152.09c.46.16.9.33,1.34.5C268.89,152.42,268.45,152.25,268,152.09Z"/><path class="cls-9" d="M240.16,152.25c.75-.23,1.54-.46,2.36-.69Z"/><path class="cls-10" d="M239.79,152.37l.37-.12Z"/><path class="cls-10" d="M244.84,151l.71-.15Z"/><path class="cls-10" d="M252.2,149.89h0Z"/><path class="cls-10" d="M235.83,153.71l0,0Z"/><path class="cls-10" d="M247.13,150.51l.77-.13Z"/><path class="cls-10" d="M249.46,150.16l.63-.08Z"/><path class="cls-10" d="M237.74,153l.19-.07Z"/><path class="cls-10" d="M264.18,150.94l.47.12Z"/><path class="cls-10" d="M267.84,152l.15.06Z"/><path class="cls-10" d="M266,151.45l.22.06Z"/><path class="cls-10" d="M269.33,152.59l.31.13Z"/><path class="cls-10" d="M270.8,153.22l.25.11Z"/><path class="cls-10" d="M256.27,149.85l.65,0Z"/><path class="cls-10" d="M258.35,150l.47,0Z"/><path class="cls-10" d="M254.25,149.82h0Z"/><path class="cls-10" d="M262.43,150.56l.5.1Z"/><path class="cls-10" d="M260.66,150.25l.26,0Z"/><path class="cls-11" d="M239.83,161.82s2.43-3.88,16.18-3.48,9.83,5.52,9.83,5.52Z"/><path class="cls-10" d="M234,154.66H273.7c-.83-.46-1.71-.9-2.65-1.33l-.25-.11c-.38-.17-.76-.34-1.16-.5l-.31-.13c-.44-.17-.88-.34-1.34-.5l-.15-.06c-.51-.18-1-.35-1.59-.52l-.22-.06q-.67-.21-1.38-.39l-.47-.12-1.25-.28-.5-.1c-.5-.1-1-.19-1.51-.27l-.26,0c-.61-.09-1.22-.17-1.84-.23l-.47,0-1.43-.11-.65,0-1.38,0h-.64l-1.8.06h-.25c-.69,0-1.4.11-2.11.19l-.63.08c-.51.06-1,.13-1.56.22l-.77.13c-.52.09-1,.2-1.58.31l-.71.15c-.76.18-1.54.37-2.32.59s-1.61.46-2.36.69l-.37.12c-.64.19-1.26.39-1.86.59l-.19.07-1.88.66,0,0c-.64.23-1.26.47-1.84.71Z"/><path class="cls-10" d="M233.41,163.34v.43c12.3-2,28.91-.62,42.32,2.85v-3.28a1.63,1.63,0,0,0-1.63-1.62H235A1.63,1.63,0,0,0,233.41,163.34Z"/><path class="cls-12" d="M255.4,0C199.77,0,154.67,45.72,154.67,102.13s44.41,95.7,100.05,95.7,101.42-39.3,101.42-95.7S311,0,255.4,0Zm0,181.75c-51,0-92.27-29.1-92.27-80.76S204.44,7.44,255.4,7.44,347.67,49.32,347.67,101,306.36,181.75,255.4,181.75Z"/><path class="cls-13" d="M254.85,197.09c-18.13,0-35.44-3.56-50-11.14,2.54,16.16,24.29,28.17,50.27,28.17s47.41-12,49.9-28.17C290.15,193.56,273,197.09,254.85,197.09Z"/><rect class="cls-12" x="186.45" y="8.43" width="34.38" height="11.4" rx="5.7" transform="translate(22.62 108.46) rotate(-31.49)"/><rect class="cls-12" x="289.94" y="8.43" width="34.38" height="11.4" rx="5.7" transform="translate(566.04 179.93) rotate(-150)"/><rect class="cls-13" x="252.52" y="214.12" width="4.11" height="48.46"/><rect class="cls-14" x="253.97" y="214.12" width="1.21" height="48.46"/><ellipse class="cls-15" cx="274.19" cy="235.95" rx="7.35" ry="8.13" transform="translate(-15.24 18.97) rotate(-3.86)"/><ellipse class="cls-14" cx="275.19" cy="235.57" rx="3.38" ry="4.19" transform="translate(-15.22 19.03) rotate(-3.86)"/><path class="cls-13" d="M244.36,308.5c-.09-.39-12.55,3.74-24.1,4.69a83.54,83.54,0,0,1-22-1.27L192.06,332h0c.81.21,1.93,0,1.48.74-2,3.28-6.77,12.09-7.22,21.95a1.23,1.23,0,0,0,.27.84c1.84,2.28,12.72,13.7,39.81,5.44a5.14,5.14,0,0,0,2.33-1.5c2.75-3.1,11.29-12.23,20.35-17,0,0,5.05-1.19-.92-18.9C247,320.12,245.34,312.81,244.36,308.5Z"/><path class="cls-13" d="M315.37,309.1l-49.79-2.76c-.79,6.15-4.39,20.24-5.68,24.1-4.13,12.42,8.42,18.72,8.42,18.72A31.68,31.68,0,0,1,281,361.53a3.35,3.35,0,0,0,1.55,1.47c3.24,1.43,14.09,4.64,37-2.44,0,0,9.48-1-2.45-26.89C317.14,333.67,312,316,315.37,309.1Z"/><path class="cls-16" d="M178.3,267.61c-.16,1.3-.29,2.61-.4,3.92-3.36,40.85,9.19,56.17,9.19,56.17a11.26,11.26,0,0,0,4.36,4.06c4.1-.9,12.44-4.94,13.55-22.94A109.62,109.62,0,0,0,213.48,277s2.14-.48,2.18-5.66a1.79,1.79,0,0,0-1.82-1.81C207.73,269.65,187.21,269.91,178.3,267.61Z"/><path class="cls-12" d="M214.2,269.51c-5.63.13-26.81.45-35.9-1.9-.16,1.3-.29,2.61-.4,3.92s-.19,2.55-.27,3.78c0,0,14.52,5.29,35.85,1.68,0,0,2.26-.51,2.18-6.08A1.42,1.42,0,0,0,214.2,269.51Z"/><path class="cls-17" d="M213.48,277s-6.73-1.46-10.69,1.16c0,0-2.14,21.86,2.21,30.67C205,308.82,215.69,289.16,213.48,277Z"/><path class="cls-18" d="M304.2,267.81a5,5,0,0,0-4.95,5.57c1.57,14.05,6.42,49.74,16.08,60.89,0,.05,1.9-.5,1.95-.44.77-.05,5.2-1.29,10.9-22.3,6.27-23.15,5.81-12.09,4.44-35.92-.24-4.09-.61-7.64-1.06-10.73C325.37,266.44,313.18,267.77,304.2,267.81Z"/><path class="cls-12" d="M331.56,264.88c-6.88,1.74-21.16,3.19-30.22,2.89a2.33,2.33,0,0,0-2.42,2.57c.12,1.11.27,2.54.46,4.21,11.36,1,25.87-1.5,32.94-2.94C332.11,269.16,331.86,266.91,331.56,264.88Z"/><path class="cls-19" d="M254.24,260.41h-5.05a1.23,1.23,0,0,0-1.24,1.24V265a1.21,1.21,0,0,0,.35.86l5,5.22a1.26,1.26,0,0,0,1.79,0l5.05-5.22a1.25,1.25,0,0,0,.35-.86v-3.36a1.24,1.24,0,0,0-1.24-1.24Z"/><path class="cls-2" d="M232,222.51s15.38-6.12,51.38-1.53l1.15,6.13s-27.26-4.85-54.83,1.79Z"/><circle class="cls-20" cx="210.09" cy="11.09" r="3.7"/><circle class="cls-20" cx="197.96" cy="18.36" r="3.7"/><circle class="cls-20" cx="313.58" cy="18.42" r="3.7"/><circle class="cls-20" cx="299.66" cy="10.67" r="3.7"/><path id="Path_15" data-name="Path 15" class="cls-21" d="M108.31,334.5l9.4-35.58-68.24-51.6-23.66,36.3,11.43,8,2.84,10.6,10.65-1.09,5.66,9,21.41,4.75,7.41,10.31,19.3,10.4Z"/><path id="Path_14" data-name="Path 14" class="cls-22" d="M102.6,341.73,78.53,363.68,0,323.79l21.87-32.73,12.69,6.24,2.84,10.6,10.8-.83,5.39,8.55,8.83,2.1,12.06,2.62,8.57,10.1Z"/><polygon class="cls-12" points="83.05 330.44 75.98 322.1 71.91 319.78 62.42 317.72 53.59 315.62 48.2 307.07 37.41 307.9 34.94 298.71 33.1 297.66 27.53 307.18 75.26 333.58 61.91 348.25 71.63 353.83 90.61 334.81 83.05 330.44"/><polygon class="cls-12" points="56.5 262.27 40.07 287.18 74.27 310.11 82.42 295.44 92.17 306.55 88.4 319.15 97 324.89 105.6 301.34 78 278.6 70.55 294.11 55.19 284.04 65.14 268.95 56.5 262.27"/></g></g></svg>