<svg xmlns="http://www.w3.org/2000/svg" xmlns:xlink="http://www.w3.org/1999/xlink" viewBox="0 0 306.55 306.55"><defs><style>.cls-1{fill:#fff;}.cls-2{fill:url(#Nepojmenovaný_přechod_10);}.cls-3{fill:#dfeeea;}.cls-4{fill:#37413e;}.cls-5{fill:#544839;}.cls-6{fill:#0d0c0a;}.cls-7{fill:#dce5e0;}.cls-8{fill:#610a0d;}.cls-9{fill:#010101;}</style><linearGradient id="Nepojmenovaný_přechod_10" x1="93.87" y1="161.01" x2="213.76" y2="161.01" gradientUnits="userSpaceOnUse"><stop offset="0" stop-color="#a4bf3f"/><stop offset="0.82" stop-color="#a2bc40"/></linearGradient></defs><g id="Vrstva_2" data-name="Vrstva 2"><g id="Vrstva_4" data-name="Vrstva 4"><circle class="cls-1" cx="153.28" cy="153.28" r="153.28"/></g><g id="Vrstva_1-2" data-name="Vrstva 1"><rect class="cls-2" x="93.87" y="56.71" width="119.89" height="208.62" rx="45.02"/><ellipse class="cls-3" cx="108.24" cy="165.49" rx="23.11" ry="27.02"/><ellipse class="cls-4" cx="108.24" cy="166.71" rx="7.08" ry="7.65"/><ellipse class="cls-3" cx="201.3" cy="166.71" rx="20.7" ry="26.14"/><ellipse class="cls-4" cx="202.09" cy="169.42" rx="7.08" ry="7.65"/><path class="cls-5" d="M90.69,111.68c3.85,22.7,35.58-20.23,77.06-10.64,33.31,7.71,43.06,34.9,50.76,9.75,4.33-14.12,8.4-53.49-6.35-66.15-11.54-9.89-39.54,4.75-55.14,6.26C102.05,56.23,86.84,89,90.69,111.68Z"/><path class="cls-6" d="M146.9,240.85c-.69,0-1.37,0-2,0C145.53,240.83,146.21,240.85,146.9,240.85Z"/><path class="cls-6" d="M149.72,240.81c-.83,0-1.66.05-2.47.05C148.06,240.86,148.89,240.85,149.72,240.81Z"/><path class="cls-6" d="M167,237.19c-.68.26-1.35.5-2,.72C165.69,237.69,166.36,237.45,167,237.19Z"/><path class="cls-6" d="M144.18,240.75c-.58,0-1.14-.07-1.7-.13C143,240.68,143.6,240.72,144.18,240.75Z"/><path class="cls-6" d="M141.84,240.56c-.64-.07-1.28-.15-1.9-.24C140.57,240.41,141.2,240.49,141.84,240.56Z"/><path class="cls-6" d="M164,238.23c-.68.21-1.35.41-2,.59C162.69,238.64,163.36,238.44,164,238.23Z"/><path class="cls-6" d="M158.14,239.76c-.8.16-1.58.3-2.36.43C156.56,240.06,157.34,239.92,158.14,239.76Z"/><path class="cls-6" d="M161.2,239.05c-.92.24-1.83.46-2.73.65C159.37,239.51,160.28,239.29,161.2,239.05Z"/><path class="cls-6" d="M139.64,240.28c-.75-.12-1.48-.24-2.2-.39C138.16,240,138.89,240.16,139.64,240.28Z"/><path class="cls-6" d="M152.25,240.63c-.64.06-1.28.1-1.9.14C151,240.73,151.61,240.69,152.25,240.63Z"/><path class="cls-6" d="M154.94,240.31c-.62.09-1.23.17-1.83.23C153.71,240.48,154.32,240.4,154.94,240.31Z"/><path class="cls-6" d="M179.25,231.54q-1.12.61-2.34,1.23Q178.13,232.16,179.25,231.54Z"/><path class="cls-6" d="M176.67,232.9q-1.12.57-2.34,1.14Q175.54,233.47,176.67,232.9Z"/><path class="cls-6" d="M133,238.8c-1.31-.38-2.56-.79-3.74-1.23C130.4,238,131.65,238.42,133,238.8Z"/><path class="cls-6" d="M115.49,228.34a5.12,5.12,0,0,0,2,3,49.75,49.75,0,0,0,11.77,6.24l52.32-7.67,0,.32c-.72.43-1.49.86-2.28,1.29a65.08,65.08,0,0,0,8.72-5.58c4.64-3.62.61-10.93-4.94-9-.82.29-1.68.56-2.55.83l0,.23a2.52,2.52,0,0,1-2.12,2.85l-50.9,7.45a2.39,2.39,0,0,1-2.72-2l-.6-4.09c-1.37-.15-2.72-.32-4-.5C114.62,220.91,114.88,225.6,115.49,228.34Z"/><path class="cls-6" d="M134.94,239.33c-.55-.13-1.1-.28-1.63-.43C133.84,239.05,134.39,239.2,134.94,239.33Z"/><path class="cls-6" d="M170.9,235.64c-1,.44-2,.84-3,1.21C168.92,236.48,169.91,236.08,170.9,235.64Z"/><path class="cls-6" d="M137.23,239.85c-.63-.13-1.25-.26-1.85-.41C136,239.59,136.6,239.72,137.23,239.85Z"/><path class="cls-6" d="M173.87,234.27c-1,.45-1.94.91-3,1.37C171.93,235.18,172.92,234.72,173.87,234.27Z"/><path class="cls-7" d="M174.33,234l-.46.23Z"/><path class="cls-7" d="M168,236.85l-.91.34Z"/><path class="cls-7" d="M158.47,239.7l-.33.06Z"/><path class="cls-7" d="M179.3,231.51l-.05,0Z"/><path class="cls-7" d="M165,237.91l-1,.32Z"/><path class="cls-7" d="M162,238.82l-.82.23Z"/><path class="cls-7" d="M176.91,232.77l-.24.13Z"/><path class="cls-7" d="M142.48,240.62l-.64-.06Z"/><path class="cls-7" d="M137.44,239.89l-.21,0Z"/><path class="cls-7" d="M139.94,240.32l-.3,0Z"/><path class="cls-7" d="M135.38,239.44l-.44-.11Z"/><path class="cls-7" d="M133.31,238.9l-.35-.1Z"/><path class="cls-7" d="M153.11,240.54l-.86.09Z"/><path class="cls-7" d="M150.35,240.77l-.63,0Z"/><path class="cls-7" d="M155.78,240.19l-.84.12Z"/><path class="cls-7" d="M144.86,240.8l-.68-.05Z"/><path class="cls-7" d="M147.25,240.86h0Z"/><path class="cls-8" d="M172.46,221.59s-2.46,5.58-20.65,7.71-14-5.37-14-5.37Z"/><path class="cls-7" d="M181.54,229.9l-52.32,7.67h0c1.18.44,2.43.85,3.74,1.23l.35.1c.53.15,1.08.3,1.63.43l.44.11c.6.15,1.22.28,1.85.41l.21,0c.72.15,1.45.27,2.2.39l.3,0c.62.09,1.26.17,1.9.24l.64.06c.56.06,1.12.1,1.7.13l.68.05c.67,0,1.35,0,2,0h.35c.81,0,1.64,0,2.47-.05l.63,0c.62,0,1.26-.08,1.9-.14l.86-.09c.6-.06,1.21-.14,1.83-.23l.84-.12c.78-.13,1.56-.27,2.36-.43l.33-.06c.9-.19,1.81-.41,2.73-.65l.82-.23c.67-.18,1.34-.38,2-.59l1-.32c.67-.22,1.34-.46,2-.72l.91-.34c1-.37,2-.77,3-1.21s2-.92,3-1.37l.46-.23q1.21-.57,2.34-1.14l.24-.13q1.22-.61,2.34-1.23l.05,0c.79-.43,1.56-.86,2.28-1.29Z"/><path class="cls-7" d="M180.62,218.35l-.09-.57c-15.82,4.94-37.95,6.4-56.3,4.42l.64,4.32a2.16,2.16,0,0,0,2.45,1.83l51.47-7.54A2.18,2.18,0,0,0,180.62,218.35Z"/><path class="cls-9" d="M162.28,148.25a40.42,40.42,0,0,1-7,1.38l-2,0-2,0a41,41,0,0,1-7-1.38S109.93,137.77,66.83,146l2.4,10.65a5,5,0,0,1,5.33,3.6s3.61,16.66,7,24.05c0,0,3.09,7.2,13.23,10.12,0,0,18.87,5,33.82-2.92,0,0,6.7-1.71,14.94-19.57l4.12-9.44s.62-3.12,5-3.57h1.15c4.37.45,5,3.57,5,3.57l4.12,9.44c8.24,17.86,14.94,19.57,14.94,19.57,15,7.9,33.83,2.92,33.83,2.92,10.13-2.92,13.22-10.12,13.22-10.12,3.44-7.39,7-24.05,7-24.05a5,5,0,0,1,5.32-3.6l2.4-10.65C196.62,137.77,162.28,148.25,162.28,148.25Zm-23,12.86c-.84,7.38-3,15.88-7.73,21.82-5.12,6.47-13,8.11-20.92,8.47-6.89.33-15.09-.08-20.86-4.37-6-4.45-11.45-28.14-5.69-34.64,2.6-2.92,6.12-3.86,9.86-4.32a108.71,108.71,0,0,1,21.85-.71C137.92,149.45,140,155.13,139.3,161.11ZM216.78,187c-5.79,4.29-14,4.7-20.86,4.37-7.92-.36-15.8-2-20.92-8.47-4.72-5.94-6.88-14.44-7.74-21.82-.67-6,1.38-11.66,23.49-13.75a108.66,108.66,0,0,1,21.85.71c3.74.46,7.26,1.4,9.87,4.32C228.23,158.89,222.76,182.58,216.78,187Z"/></g></g></svg>