<svg xmlns="http://www.w3.org/2000/svg" xmlns:xlink="http://www.w3.org/1999/xlink" viewBox="0 0 306.55 306.55"><defs><style>.cls-1{fill:#fff;}.cls-2{fill:url(#Nepojmenovaný_přechod_10);}.cls-3{fill:#dfeeea;}.cls-4{fill:#37413e;}.cls-5{fill:#282623;}.cls-6{fill:#0d0c0a;}.cls-7{fill:#010101;}.cls-8{fill:#610a0d;}</style><linearGradient id="Nepojmenovaný_přechod_10" x1="89.71" y1="166.02" x2="209.6" y2="166.02" gradientUnits="userSpaceOnUse"><stop offset="0" stop-color="#a4bf3f"/><stop offset="0.82" stop-color="#a2bc40"/></linearGradient></defs><g id="Vrstva_2" data-name="Vrstva 2"><g id="Vrstva_4" data-name="Vrstva 4"><circle class="cls-1" cx="153.28" cy="153.28" r="153.28"/></g><g id="Vrstva_1-2" data-name="Vrstva 1"><rect class="cls-2" x="89.71" y="61.71" width="119.89" height="208.62" rx="45.02"/><ellipse class="cls-3" cx="104.08" cy="170.49" rx="23.11" ry="27.02"/><ellipse class="cls-4" cx="104.08" cy="170.49" rx="7.08" ry="7.65"/><ellipse class="cls-3" cx="197.13" cy="171.71" rx="20.7" ry="26.14"/><ellipse class="cls-4" cx="197.13" cy="171.71" rx="7.08" ry="7.65"/><path class="cls-5" d="M86.53,116.69c3.85,22.69,35.58-20.24,77.05-10.65,33.32,7.71,43.06,34.9,50.77,9.75s-25.94-63.33-61.49-59.88C97.89,61.23,82.68,94,86.53,116.69Z"/><path class="cls-6" d="M116.26,233.63h67.32a2.36,2.36,0,0,1,2.36,2.36v0a17.42,17.42,0,0,1-17.42,17.42H131.32A17.42,17.42,0,0,1,113.9,236v0a2.36,2.36,0,0,1,2.36-2.36Z"/><path class="cls-3" d="M183.57,233.63H116.26A2.35,2.35,0,0,0,113.9,236a17.23,17.23,0,0,0,.35,3.47h71.33a17.23,17.23,0,0,0,.35-3.47A2.35,2.35,0,0,0,183.57,233.63Z"/><circle class="cls-5" cx="218.24" cy="100.03" r="15.8"/><circle class="cls-5" cx="229.48" cy="113.91" r="15.8"/><circle class="cls-5" cx="229.48" cy="97.03" r="11.69"/><circle class="cls-5" cx="223.31" cy="83.62" r="15.8"/><circle class="cls-5" cx="210.7" cy="81.95" r="16.25"/><circle class="cls-5" cx="209.52" cy="59.43" r="15.8"/><circle class="cls-5" cx="188.96" cy="59.43" r="15.8"/><circle class="cls-5" cx="183.08" cy="53.05" r="15.8"/><circle class="cls-5" cx="154.45" cy="52.03" r="15.8"/><circle class="cls-5" cx="125.11" cy="54.07" r="15.8"/><circle class="cls-5" cx="105.96" cy="62.75" r="15.8"/><ellipse class="cls-5" cx="92.9" cy="78.31" rx="20.48" ry="18.88"/><ellipse class="cls-5" cx="81.75" cy="109.9" rx="20.48" ry="18.88"/><circle class="cls-5" cx="92.22" cy="97.18" r="15.8"/><circle class="cls-5" cx="86.44" cy="105.66" r="15.8"/><circle class="cls-5" cx="99.71" cy="118.28" r="15.8"/><circle class="cls-5" cx="109.48" cy="102.49" r="18.26"/><circle class="cls-5" cx="136.69" cy="105.66" r="15.8"/><circle class="cls-5" cx="84.23" cy="127.97" r="14.06"/><circle class="cls-5" cx="165.71" cy="100.03" r="15.8"/><circle class="cls-5" cx="179.55" cy="112.98" r="15.8"/><circle class="cls-5" cx="205" cy="110.94" r="15.8"/><circle class="cls-5" cx="213.68" cy="115.82" r="15.8"/><circle class="cls-5" cx="217.83" cy="126.73" r="15.8"/><path class="cls-7" d="M158.69,150.54a40.69,40.69,0,0,1-7,1.39l-2,0-2,0a41,41,0,0,1-7.05-1.39s-34.35-10.47-77.45-2.23L65.65,159a5,5,0,0,1,5.32,3.6s3.61,16.66,7,24c0,0,3.08,7.21,13.22,10.13,0,0,18.88,5,33.83-2.92,0,0,6.69-1.72,14.94-19.57l4.11-9.45s.63-3.12,5-3.56l.57,0,.57,0c4.37.44,5,3.56,5,3.56l4.12,9.45c8.24,17.85,14.94,19.57,14.94,19.57,14.94,7.9,33.82,2.92,33.82,2.92,10.14-2.92,13.23-10.13,13.23-10.13,3.43-7.38,7-24,7-24a5,5,0,0,1,5.33-3.6l2.39-10.65C193,140.07,158.69,150.54,158.69,150.54Zm-23,12.86c-.85,7.39-3,15.89-7.74,21.83-5.12,6.47-13,8.11-20.91,8.47-6.9.32-15.09-.09-20.86-4.38-6-4.44-11.46-28.13-5.7-34.63,2.6-2.93,6.13-3.87,9.87-4.32a108.58,108.58,0,0,1,21.84-.71C134.34,151.74,136.39,157.43,135.72,163.4Zm77.47,25.92c-5.78,4.29-14,4.7-20.86,4.38-7.91-.36-15.8-2-20.92-8.47-4.72-5.94-6.88-14.44-7.73-21.83-.68-6,1.37-11.66,23.49-13.74a108.66,108.66,0,0,1,21.85.71c3.74.45,7.26,1.4,9.87,4.32C224.65,161.19,219.18,184.88,213.19,189.32Z"/><path class="cls-8" d="M149.65,247.85c-6.87,0-12.44,2.49-12.44,5.55H162.1C162.1,250.34,156.53,247.85,149.65,247.85Z"/></g></g></svg>