<svg xmlns="http://www.w3.org/2000/svg" xmlns:xlink="http://www.w3.org/1999/xlink" viewBox="0 0 356.81 356.81"><defs><style>.cls-1,.cls-9{fill:#fff;}.cls-2{fill:#282623;}.cls-3{fill:url(#Nepojmenovaný_přechod_10);}.cls-4{fill:#dfeeea;}.cls-5{fill:#37413e;}.cls-6{fill:#0d0c0a;}.cls-7{fill:#610a0d;}.cls-8{fill:#1d1d1b;}.cls-9{opacity:0.2;}</style><linearGradient id="Nepojmenovaný_přechod_10" x1="117.6" y1="179.61" x2="237.49" y2="179.61" gradientUnits="userSpaceOnUse"><stop offset="0" stop-color="#a4bf3f"/><stop offset="0.82" stop-color="#a2bc40"/></linearGradient></defs><g id="Vrstva_2" data-name="Vrstva 2"><g id="Vrstva_4" data-name="Vrstva 4"><circle class="cls-1" cx="178.4" cy="178.4" r="178.4"/></g><g id="Vrstva_3" data-name="Vrstva 3"><ellipse class="cls-2" cx="245.35" cy="129.08" rx="11.74" ry="16.51"/><ellipse class="cls-2" cx="256.79" cy="146.18" rx="7.63" ry="18.81"/><ellipse class="cls-2" cx="244.59" cy="162.6" rx="9.79" ry="17.01"/><ellipse class="cls-2" cx="255.38" cy="182.53" rx="6.23" ry="22.3"/><ellipse class="cls-2" cx="252.54" cy="201.84" rx="6.94" ry="19.32"/><ellipse class="cls-2" cx="242.57" cy="143.67" rx="6.58" ry="17.74"/><ellipse class="cls-2" cx="238.63" cy="101.8" rx="6.98" ry="15.7"/><ellipse class="cls-2" cx="230.1" cy="134.87" rx="7.39" ry="10.72"/><ellipse class="cls-2" cx="258.02" cy="173.4" rx="8.86" ry="18.34"/><ellipse class="cls-2" cx="253.49" cy="200.74" rx="10.92" ry="13.79"/><ellipse class="cls-2" cx="256.79" cy="216.82" rx="7.63" ry="12"/><ellipse class="cls-2" cx="240.71" cy="226.01" rx="10.6" ry="19.91"/><ellipse class="cls-2" cx="256.89" cy="240.57" rx="8.72" ry="23.74"/><ellipse class="cls-2" cx="270.49" cy="215.67" rx="12.47" ry="21.83"/><ellipse class="cls-2" cx="267.57" cy="182.94" rx="5.96" ry="20.35"/><ellipse class="cls-2" cx="259.08" cy="147.63" rx="15.72" ry="24.51"/><ellipse class="cls-2" cx="240.46" cy="106.78" rx="28.47" ry="17.36"/><circle class="cls-2" cx="220.07" cy="75.88" r="13.54"/><ellipse class="cls-2" cx="226.03" cy="93.38" rx="9.96" ry="13.4"/><ellipse class="cls-2" cx="197.95" cy="72.95" rx="11.87" ry="18.13" transform="translate(3.25 154.18) rotate(-42.88)"/><ellipse class="cls-2" cx="111.27" cy="106.46" rx="8.55" ry="13.09"/><ellipse class="cls-2" cx="132.33" cy="85.33" rx="10.72" ry="17.62"/><ellipse class="cls-2" cx="138.46" cy="93.93" rx="23.49" ry="18.63"/><circle class="cls-2" cx="157.99" cy="67.84" r="10.85"/><circle class="cls-2" cx="169.34" cy="73.84" r="11.5"/><circle class="cls-2" cx="180.97" cy="67.84" r="10.85"/><circle class="cls-2" cx="151.88" cy="83.43" r="14.16"/><circle class="cls-2" cx="110.36" cy="135.87" r="14.54"/><circle class="cls-2" cx="109.67" cy="126.22" r="16.44"/><circle class="cls-2" cx="141.42" cy="78.44" r="6.89"/><circle class="cls-2" cx="98.12" cy="147.41" r="11.54"/><circle class="cls-2" cx="86.81" cy="166.21" r="23.55"/><circle class="cls-2" cx="87.29" cy="196.53" r="21.57"/><circle class="cls-2" cx="87.42" cy="213.48" r="19.64"/><circle class="cls-2" cx="98.15" cy="230.23" r="15.7"/><circle class="cls-2" cx="112.84" cy="241.53" r="12.05"/><circle class="cls-2" cx="104.26" cy="209.87" r="13.34"/><circle class="cls-2" cx="106.97" cy="215.2" r="17.92"/><circle class="cls-2" cx="97.77" cy="169.68" r="22.05"/><circle class="cls-2" cx="111.22" cy="160.58" r="20.75"/><circle class="cls-2" cx="87.68" cy="131.81" r="21.19"/><circle class="cls-2" cx="100.64" cy="107.79" r="9.72"/><circle class="cls-2" cx="113.44" cy="92.48" r="10.47"/><circle class="cls-2" cx="74.42" cy="236.91" r="18.81"/><circle class="cls-2" cx="83.12" cy="250.08" r="19.85"/><circle class="cls-2" cx="67.43" cy="215.76" r="15.02"/><circle class="cls-2" cx="252.48" cy="193.82" r="18.87"/><circle class="cls-2" cx="251.44" cy="250.76" r="15.45"/><circle class="cls-2" cx="280.54" cy="247.22" r="17.74"/><circle class="cls-2" cx="287.18" cy="214.14" r="20.3"/><circle class="cls-2" cx="280.54" cy="191.14" r="17.74"/><circle class="cls-2" cx="274.8" cy="173.42" r="15.32"/><circle class="cls-2" cx="274.84" cy="157.8" r="13.23"/><circle class="cls-2" cx="274.4" cy="146.37" r="12.78"/><circle class="cls-2" cx="268.28" cy="135.24" r="13.91"/><circle class="cls-2" cx="264.17" cy="127.86" r="10.67"/><circle class="cls-2" cx="103.2" cy="182.42" r="16.62"/><circle class="cls-2" cx="109.28" cy="244.86" r="14.63"/><circle class="cls-2" cx="63.53" cy="190.62" r="14.2"/></g><g id="Vrstva_1-2" data-name="Vrstva 1"><rect class="cls-3" x="117.6" y="75.3" width="119.89" height="208.62" rx="45.02"/><ellipse class="cls-4" cx="131.97" cy="184.08" rx="23.11" ry="27.02"/><ellipse class="cls-5" cx="131.97" cy="184.08" rx="7.08" ry="7.65"/><ellipse class="cls-4" cx="225.03" cy="185.3" rx="20.7" ry="26.14"/><ellipse class="cls-5" cx="225.03" cy="185.3" rx="7.08" ry="7.65"/><path class="cls-2" d="M114.42,130.28C118.27,153,150,110,191.48,119.63c33.31,7.71,43.06,34.9,50.76,9.75S216.3,66.05,180.75,69.5C125.78,74.82,110.57,107.58,114.42,130.28Z"/><ellipse class="cls-6" cx="177.42" cy="248.19" rx="29.11" ry="15.06"/><path class="cls-7" d="M177.42,263.25a54.38,54.38,0,0,0,9.77-.87c2.8-3.17-4.57-6.66-9.77-6.66s-7.26,2.46-9.77,6.66A54.38,54.38,0,0,0,177.42,263.25Z"/><path class="cls-4" d="M197.94,237.5c-5.26-2.7-12.51-4.38-20.52-4.38s-15.26,1.68-20.52,4.38Z"/><path class="cls-8" d="M261.51,160.15c-.22-1.21-3.4-1-3.4-1a27.19,27.19,0,0,1-11.22-.22c-3.77-.8-7.58-1.52-11.38-2.21-12.87-2.32-25.22-3.29-36.62,4.35-.82.55-7.4,4.89-10.69,4.89-2.2,0-4.43-.6-7.49-1-1-.14-2.09-.26-3.29-.33s-2.29.19-3.29.33c-3.06.42-5.29,1-7.49,1-3.29,0-9.87-4.34-10.69-4.89-11.4-7.64-23.75-6.67-36.63-4.35-3.8.69-7.6,1.41-11.38,2.21a27.13,27.13,0,0,1-11.21.22s-3.19-.22-3.41,1,0,7.8,0,7.8a2.26,2.26,0,0,0,2.09,2.53c2.42.44,4.73.44,5.39,5.06s.88,9.45,3.3,18a7.89,7.89,0,0,1-.13-.88c3.64,13.15,16.43,22.87,31.64,22.87,11.6,0,23.8-5.86,29-16.66a44.06,44.06,0,0,0,3.77-13.75c.4-3.2.33-6.76,2.07-9.6,1.56-2.57,4.62-3.33,7-3.5,2.38.17,5.44.93,7,3.5,1.74,2.84,1.67,6.4,2.07,9.6a43.79,43.79,0,0,0,3.77,13.75c5.17,10.8,17.37,16.66,29,16.66,15.21,0,28-9.72,31.64-22.87a7.89,7.89,0,0,1-.13.88c2.42-8.57,2.64-13.41,3.3-18s3-4.62,5.39-5.06a2.25,2.25,0,0,0,2.08-2.53S261.73,161.36,261.51,160.15ZM135.17,212.91c-16,0-28.94-12.74-29.46-28-.73-21.4,13.44-25.48,29.46-25.94,20.26-.59,29,11,29,26.3S151.19,212.91,135.17,212.91Zm114-28c-.52,15.25-13.43,28-29.46,28s-29-12.37-29-27.63,8.76-26.89,29-26.3C235.69,159.44,249.86,163.52,249.13,184.92Z"/><path class="cls-9" d="M135.17,159c-16,.46-30.19,4.54-29.46,25.94.52,15.25,13.43,28,29.46,28s29-12.37,29-27.63S155.43,158.39,135.17,159Z"/><path class="cls-9" d="M219.67,159c-20.26-.59-29,11-29,26.3s13,27.63,29,27.63,28.94-12.74,29.46-28C249.86,163.52,235.69,159.44,219.67,159Z"/><circle class="cls-2" cx="119.82" cy="131.81" r="16.07"/><circle class="cls-2" cx="145.92" cy="125.39" r="8.2"/><circle class="cls-2" cx="168.23" cy="122.95" r="10.38"/><circle class="cls-2" cx="201.91" cy="121.72" r="10.09"/><circle class="cls-2" cx="216.54" cy="117.8" r="17.06"/><circle class="cls-2" cx="180.65" cy="118.78" r="7.15"/><circle class="cls-2" cx="183.13" cy="111.6" r="13.79"/><ellipse class="cls-2" cx="143.01" cy="120.26" rx="29.15" ry="13.33"/></g></g></svg>