<svg xmlns="http://www.w3.org/2000/svg" xmlns:xlink="http://www.w3.org/1999/xlink" viewBox="0 0 282.7 282.7"><defs><style>.cls-1{fill:#fff;}.cls-2{fill:url(#Nepojmenovaný_přechod_10);}.cls-3{fill:#dfeeea;}.cls-4{fill:#37413e;}.cls-5{fill:#171615;}.cls-6{fill:#0d0c0a;}.cls-7{fill:#dce5e0;}.cls-8{fill:#610a0d;}</style><linearGradient id="Nepojmenovaný_přechod_10" x1="81.4" y1="148.93" x2="201.28" y2="148.93" gradientUnits="userSpaceOnUse"><stop offset="0" stop-color="#a4bf3f"/><stop offset="0.82" stop-color="#a2bc40"/></linearGradient></defs><g id="Vrstva_2" data-name="Vrstva 2"><g id="Vrstva_1-2" data-name="Vrstva 1"><circle class="cls-1" cx="141.35" cy="141.35" r="141.35"/><rect class="cls-2" x="81.4" y="44.62" width="119.89" height="208.62" rx="45.02"/><ellipse class="cls-3" cx="95.76" cy="153.41" rx="23.11" ry="27.02"/><ellipse class="cls-4" cx="95.76" cy="154.63" rx="7.08" ry="7.65"/><ellipse class="cls-3" cx="188.82" cy="154.63" rx="20.7" ry="26.14"/><ellipse class="cls-4" cx="189.62" cy="157.33" rx="7.08" ry="7.65"/><path class="cls-5" d="M78.21,99.6c3.86,22.69,33.73-14.87,77.06-10.64,34,3.32,43.06,34.9,50.77,9.74,4.32-14.12,8.39-53.48-6.36-66.14-11.53-9.89-35.15,7.11-55.13,6.26C89.37,36.49,74.36,76.91,78.21,99.6Z"/><path class="cls-6" d="M151,205.7c.66.17,1.31.36,2,.55C152.28,206.06,151.63,205.87,151,205.7Z"/><path class="cls-6" d="M148.21,205.06c.82.17,1.63.35,2.41.55C149.84,205.41,149,205.23,148.21,205.06Z"/><path class="cls-6" d="M130.53,204.37c.72-.08,1.44-.15,2.14-.2C132,204.22,131.25,204.29,130.53,204.37Z"/><path class="cls-6" d="M153.58,206.46c.55.17,1.08.35,1.61.54C154.66,206.81,154.13,206.63,153.58,206.46Z"/><path class="cls-6" d="M155.8,207.21l1.78.69Z"/><path class="cls-6" d="M133.7,204.1c.71,0,1.41-.07,2.1-.09C135.11,204,134.41,204.05,133.7,204.1Z"/><path class="cls-6" d="M139.79,204c.81,0,1.61.09,2.4.16C141.4,204.13,140.6,204.07,139.79,204Z"/><path class="cls-6" d="M136.65,204c.95,0,1.89,0,2.81,0C138.54,204,137.6,204,136.65,204Z"/><path class="cls-6" d="M157.87,208c.69.29,1.38.59,2,.9Q158.92,208.46,157.87,208Z"/><path class="cls-6" d="M145.71,204.62q1,.15,1.89.33Q146.67,204.77,145.71,204.62Z"/><path class="cls-6" d="M143,204.28c.62.06,1.23.14,1.83.22C144.26,204.42,143.65,204.34,143,204.28Z"/><path class="cls-6" d="M117.32,206.9c.82-.22,1.68-.43,2.57-.63C119,206.47,118.14,206.68,117.32,206.9Z"/><path class="cls-6" d="M120.15,206.21c.82-.19,1.67-.37,2.54-.55C121.82,205.84,121,206,120.15,206.21Z"/><path class="cls-6" d="M164,211.07c1.18.68,2.29,1.39,3.33,2.1C166.28,212.46,165.17,211.75,164,211.07Z"/><path class="cls-6" d="M178.4,225.45a5.11,5.11,0,0,0-1.17-3.37,49.7,49.7,0,0,0-9.91-8.91l-52.62-5.24,0-.32c.8-.24,1.65-.47,2.53-.7a63.78,63.78,0,0,0-9.82,3.31c-5.38,2.38-3.24,10.45,2.62,9.9.87-.08,1.77-.13,2.67-.19l0-.23a2.51,2.51,0,0,1,2.75-2.24l51.19,5.1a2.39,2.39,0,0,1,2.14,2.62l-.41,4.11c1.29.48,2.56,1,3.8,1.47C177.45,232.87,178.33,228.26,178.4,225.45Z"/><path class="cls-6" d="M162.2,210.07l1.47.81Z"/><path class="cls-6" d="M126.42,205c1.07-.19,2.11-.34,3.15-.47C128.53,204.61,127.49,204.76,126.42,205Z"/><path class="cls-6" d="M160.1,209c.58.27,1.15.55,1.7.84C161.25,209.57,160.68,209.29,160.1,209Z"/><path class="cls-6" d="M123.2,205.55c1-.2,2.1-.41,3.22-.6C125.3,205.14,124.23,205.35,123.2,205.55Z"/><path class="cls-7" d="M122.69,205.66l.51-.11Z"/><path class="cls-7" d="M129.57,204.48l1-.11Z"/><path class="cls-7" d="M139.46,204l.33,0Z"/><path class="cls-7" d="M117.27,206.91h0Z"/><path class="cls-7" d="M132.67,204.17l1-.07Z"/><path class="cls-7" d="M135.8,204l.85,0Z"/><path class="cls-7" d="M119.89,206.27l.26-.06Z"/><path class="cls-7" d="M155.19,207l.61.21Z"/><path class="cls-7" d="M159.91,208.92l.19.1Z"/><path class="cls-7" d="M157.58,207.9l.29.12Z"/><path class="cls-7" d="M161.8,209.86l.4.21Z"/><path class="cls-7" d="M163.67,210.88l.32.19Z"/><path class="cls-7" d="M144.86,204.5l.85.12Z"/><path class="cls-7" d="M147.6,205l.61.11Z"/><path class="cls-7" d="M142.19,204.2l.84.08Z"/><path class="cls-7" d="M152.93,206.25l.65.21Z"/><path class="cls-7" d="M150.62,205.61l.35.09Z"/><path class="cls-8" d="M121.5,218.19s3.73-4.81,21.9-2.47,12.29,8.6,12.29,8.6Z"/><path class="cls-7" d="M114.7,207.93l52.62,5.24h0c-1-.71-2.15-1.42-3.33-2.1l-.32-.19-1.47-.81-.4-.21c-.55-.29-1.12-.57-1.7-.84l-.19-.1c-.66-.31-1.35-.61-2-.9l-.29-.12-1.78-.69-.61-.21c-.53-.19-1.06-.37-1.61-.54l-.65-.21c-.65-.19-1.3-.38-2-.55l-.35-.09c-.78-.2-1.59-.38-2.41-.55l-.61-.11q-.93-.18-1.89-.33l-.85-.12c-.6-.08-1.21-.16-1.83-.22l-.84-.08c-.79-.07-1.59-.13-2.4-.16l-.33,0c-.92,0-1.86,0-2.81,0l-.85,0c-.69,0-1.39,0-2.1.09l-1,.07c-.7.05-1.42.12-2.14.2l-1,.11c-1,.13-2.08.28-3.15.47s-2.19.4-3.22.6l-.51.11c-.87.18-1.72.36-2.54.55l-.26.06c-.89.2-1.75.41-2.57.63h0c-.88.23-1.73.46-2.53.7Z"/><path class="cls-7" d="M112.8,219.36l-.06.57c16.55-1,38.38,3,55.69,9.36l.44-4.34a2.18,2.18,0,0,0-2-2.37l-51.75-5.16A2.17,2.17,0,0,0,112.8,219.36Z"/></g></g></svg>