<?xml version="1.0" standalone="no"?>
<!DOCTYPE svg PUBLIC "-//W3C//DTD SVG 20010904//EN"
 "http://www.w3.org/TR/2001/REC-SVG-20010904/DTD/svg10.dtd">
<svg version="1.0" xmlns="http://www.w3.org/2000/svg"
 width="284.000000pt" height="284.000000pt" viewBox="0 0 284.000000 284.000000"
 preserveAspectRatio="xMidYMid meet">
<metadata>
Created by potrace 1.11, written by Peter Selinger 2001-2013
</metadata>
<g transform="translate(0.000000,284.000000) scale(0.100000,-0.100000)"
fill="#000000" stroke="none">
<path d="M1275 2699 c-253 -33 -521 -165 -705 -349 -174 -174 -302 -421 -345
-664 -21 -125 -20 -337 4 -451 88 -424 395 -704 891 -811 122 -27 497 -27 620
-1 410 89 675 280 822 593 149 320 119 750 -77 1084 -249 423 -728 660 -1210
599z m155 -254 c-12 -15 -11 -16 12 -19 7 0 17 -10 23 -22 5 -11 16 -19 22
-17 10 4 10 9 0 25 -9 16 -9 22 1 25 6 3 10 8 8 11 -2 4 7 8 20 8 14 1 21 -2
17 -9 -4 -6 3 -8 19 -5 17 3 25 0 25 -9 0 -8 -6 -12 -14 -9 -7 3 -13 1 -13 -4
0 -5 12 -13 26 -16 22 -6 24 -8 10 -16 -9 -5 -14 -13 -11 -19 3 -5 -1 -6 -10
-3 -10 4 -12 10 -6 18 6 8 -3 16 -30 28 -35 15 -50 12 -32 -6 4 -3 8 -12 9
-19 1 -7 3 -16 4 -22 4 -19 0 -35 -9 -35 -5 0 -8 11 -7 24 2 17 -2 25 -13 25
-9 0 -33 2 -53 4 -26 3 -38 0 -38 -8 0 -8 8 -11 20 -8 11 3 28 2 37 -2 10 -5
22 -7 26 -6 5 1 6 -3 3 -8 -7 -10 -25 -9 -44 3 -8 5 -18 4 -25 -3 -8 -8 -8
-11 1 -11 6 0 9 -7 6 -15 -4 -9 0 -15 7 -15 11 0 11 -3 -1 -11 -11 -8 -12 -12
-2 -16 6 -2 9 -10 6 -16 -3 -7 3 -1 14 12 11 14 18 31 15 38 -3 7 0 13 6 13 6
0 11 -7 11 -16 0 -13 3 -14 13 -5 8 6 17 8 21 4 3 -4 17 -8 29 -10 20 -3 21
-2 4 11 -11 8 -15 20 -11 31 5 13 9 14 15 3 7 -10 9 -10 9 0 0 9 5 10 18 4 9
-6 27 -6 40 -1 27 10 30 23 2 14 -12 -4 -20 -2 -20 5 0 6 4 9 8 6 4 -2 13 4
20 15 10 15 10 19 -1 19 -8 0 -14 7 -14 15 0 19 2 19 22 -1 11 -12 13 -20 5
-29 -8 -10 -5 -17 12 -29 l22 -16 -22 0 c-12 0 -22 -4 -22 -9 0 -4 -14 -7 -31
-5 -39 5 -54 -3 -38 -22 6 -7 16 -11 22 -7 6 3 7 1 3 -5 -4 -7 -3 -12 3 -12 5
0 15 8 21 18 10 15 10 15 8 -3 -3 -17 3 -20 31 -20 22 0 36 -6 39 -15 3 -8 1
-12 -3 -8 -5 4 -14 3 -21 -3 -8 -7 -14 -7 -19 1 -13 20 -25 9 -20 -17 l6 -28
-14 30 c-8 17 -24 36 -36 43 -19 11 -22 10 -31 -13 -10 -26 -24 -32 -35 -15
-3 6 2 10 11 10 14 0 15 3 6 12 -9 9 -15 9 -23 1 -6 -6 -18 -9 -27 -6 -10 4
-13 2 -8 -5 5 -8 2 -10 -8 -6 -9 3 -16 1 -16 -5 0 -6 -6 -11 -14 -11 -8 0 -16
-3 -19 -7 -2 -5 -2 -3 -1 4 2 7 -1 15 -7 18 -5 4 -7 11 -4 16 6 8 -8 13 -27
10 -12 -2 -10 17 2 24 6 3 10 1 10 -5 0 -6 5 -8 10 -5 6 3 10 11 10 16 0 6 -4
7 -10 4 -5 -3 -9 2 -8 12 0 10 0 27 -1 38 -1 17 -3 18 -11 5 -8 -13 -10 -12
-10 4 0 12 5 16 15 13 18 -7 30 9 13 17 -7 3 1 2 17 -1 30 -6 30 -6 12 15 -18
20 -18 20 0 25 10 3 20 5 22 6 2 0 -2 -6 -9 -14z m-58 -15 c-11 -12 -27 -18
-40 -15 -12 2 -22 0 -22 -6 0 -5 -5 -9 -12 -9 -6 0 -3 9 7 20 14 15 21 17 31
9 11 -9 15 -7 20 5 3 9 13 16 20 16 11 0 11 -5 -4 -20z m-129 -23 c3 -8 -3
-14 -14 -14 -21 -2 -26 13 -6 20 6 3 13 6 13 6 1 1 4 -5 7 -12z m73 -9 c22 11
26 9 34 -12 5 -13 13 -27 19 -30 14 -9 2 -36 -16 -36 -8 0 -11 -5 -7 -12 4 -6
3 -8 -3 -5 -6 4 -14 -1 -18 -10 -5 -16 -8 -15 -25 7 -11 14 -20 21 -20 15 0
-5 -5 -3 -10 5 -6 9 -10 10 -10 3 0 -6 4 -14 10 -18 11 -7 2 -35 -12 -35 -5 0
-6 5 -3 10 3 6 2 10 -4 10 -9 0 -7 37 3 48 3 2 13 1 23 -3 10 -5 21 -7 26 -7
4 1 7 -5 7 -14 0 -8 4 -12 10 -9 16 10 -11 44 -29 37 -14 -5 -14 -3 -2 11 17
21 31 22 31 3 0 -8 4 -17 8 -20 4 -2 8 6 8 19 0 13 -4 21 -8 19 -4 -3 -8 -1
-8 4 0 6 -9 8 -20 5 -11 -3 -17 -10 -13 -16 4 -6 0 -8 -11 -4 -10 4 -15 3 -11
-3 3 -6 -1 -10 -9 -10 -9 0 -16 -4 -16 -9 0 -5 -7 -17 -16 -25 -8 -9 -11 -16
-5 -16 6 0 8 -7 5 -15 -4 -8 -10 -15 -16 -15 -5 0 -6 4 -3 10 7 11 -19 53 -27
45 -2 -3 -5 2 -5 10 0 14 11 19 31 16 5 -1 6 4 3 12 -3 8 3 14 16 15 17 1 18
-1 7 -8 -8 -5 -11 -12 -7 -17 11 -10 47 38 39 52 -3 5 2 4 11 -4 14 -11 23
-11 43 -3z m366 -12 c-4 -14 -2 -17 8 -11 9 6 11 4 5 -5 -6 -10 -4 -12 8 -7
10 3 17 2 17 -4 0 -6 7 -6 19 1 23 12 31 13 30 3 -1 -5 -1 -15 0 -23 1 -12 4
-12 15 3 9 12 16 14 21 8 3 -6 2 -11 -4 -11 -5 0 -9 -18 -7 -40 2 -28 -1 -40
-10 -40 -17 0 -29 20 -17 29 21 15 -3 59 -32 57 -13 0 -21 -4 -19 -7 1 -3 -3
-6 -11 -6 -8 0 -13 5 -12 11 1 6 -4 10 -10 9 -7 -2 -12 0 -12 5 4 22 -2 42
-11 37 -5 -3 -10 -2 -10 4 0 5 8 9 19 8 13 -1 17 -7 13 -21z m-142 -7 c0 -5
-4 -9 -8 -9 -5 0 -9 7 -9 15 0 8 4 12 9 9 4 -3 8 -9 8 -15z m194 12 c11 -4 15
-10 10 -13 -5 -4 -18 0 -29 8 -20 15 -12 17 19 5z m-560 -23 c-10 -13 -20 -25
-21 -27 -2 -2 -3 5 -3 17 0 11 8 23 18 25 9 3 19 5 21 6 2 0 -4 -9 -15 -21z
m-34 -7 c0 -14 -5 -18 -20 -14 -11 3 -20 9 -20 14 0 5 7 6 15 3 8 -4 15 -1 15
5 0 6 2 11 5 11 3 0 5 -9 5 -19z m-44 -25 c18 -19 18 -27 -1 -20 -11 5 -14 1
-9 -12 5 -16 4 -16 -5 -4 -10 13 -15 8 -12 -12 0 -5 -9 -8 -21 -8 -21 1 -21 2
-5 11 9 5 17 17 17 25 0 9 5 12 12 8 8 -5 9 -2 5 9 -8 21 0 22 19 3z m647 -18
c7 -7 13 -26 14 -42 1 -21 -2 -25 -8 -15 -7 12 -10 12 -18 1 -6 -11 -14 -8
-36 12 -18 17 -36 24 -51 22 -13 -3 -24 0 -24 5 0 6 6 9 13 6 6 -2 20 0 31 5
10 6 16 6 13 1 -3 -5 3 -14 13 -20 15 -10 17 -9 12 9 -3 14 -1 19 6 14 7 -4
12 -2 12 3 0 15 9 14 23 -1z m83 -4 c-3 -9 -6 -21 -6 -27 0 -7 -5 -6 -12 2
-11 11 -10 14 1 18 11 5 11 7 0 14 -11 7 -10 9 5 9 12 0 16 -5 12 -16z m-782
-3 c-3 -3 -11 -6 -17 -6 -7 -1 -11 -7 -9 -14 1 -7 0 -22 -4 -33 -5 -15 -8 -17
-14 -8 -14 23 9 67 35 67 8 0 12 -3 9 -6z m113 -24 c6 0 9 -10 7 -24 -2 -12 0
-23 6 -23 6 0 8 5 5 10 -3 6 1 10 10 10 9 0 13 -4 10 -10 -3 -6 4 -10 17 -10
13 0 18 3 12 8 -8 5 -7 11 4 22 14 13 15 13 10 -1 -3 -9 -2 -22 2 -29 10 -16
-9 -50 -27 -50 -16 0 -17 12 0 29 10 11 9 13 -3 9 -8 -3 -25 -1 -37 3 -14 5
-23 5 -23 -1 0 -6 7 -10 16 -10 13 0 15 -7 11 -29 -5 -23 -2 -30 13 -34 11 -3
20 -1 20 4 0 5 9 9 19 9 24 0 36 18 32 47 -1 13 4 29 11 37 12 11 18 10 43
-11 17 -14 25 -23 19 -19 -13 6 -57 -28 -47 -37 3 -4 12 1 20 11 12 14 14 14
10 1 -3 -9 1 -16 9 -16 9 0 13 6 9 16 -5 13 -4 14 7 3 10 -10 15 -8 26 10 7
13 11 15 8 6 -3 -10 -1 -20 4 -23 23 -14 6 -22 -54 -22 -44 0 -70 -5 -80 -16
-8 -8 -12 -17 -9 -21 3 -3 -9 -1 -28 4 -18 6 -43 7 -54 4 -16 -4 -17 -3 -5 5
12 8 9 12 -17 17 -39 8 -35 23 5 19 19 -1 29 2 29 12 0 8 -6 12 -14 9 -8 -3
-13 3 -14 17 l-2 22 -4 -22 c-3 -13 -12 -23 -22 -23 -9 0 -23 -6 -31 -12 -12
-11 -12 -10 -1 5 8 9 11 20 7 24 -3 4 -12 -1 -19 -10 -10 -15 -12 -14 -13 13
-1 16 3 30 8 30 5 0 6 -5 2 -11 -4 -7 -1 -10 7 -7 8 3 23 1 34 -4 l20 -9 -20
18 c-11 10 -21 25 -23 33 -3 10 3 9 18 -5 28 -26 50 -28 50 -4 0 22 -11 24
-28 7 -7 -7 -12 -10 -13 -7 0 2 -2 12 -4 22 -3 14 1 16 18 11 12 -4 27 -7 34
-7z m718 0 c12 -10 14 -16 7 -21 -15 -9 -54 12 -47 25 8 12 18 11 40 -4z
m-502 -14 c-7 -2 -21 -2 -30 0 -10 3 -4 5 12 5 17 0 24 -2 18 -5z m-390 -16
c3 -8 -1 -14 -9 -14 -15 0 -18 9 -7 20 9 9 10 9 16 -6z m84 7 c-3 -3 -12 -4
-19 -1 -8 3 -5 6 6 6 11 1 17 -2 13 -5z m258 -4 c3 -5 2 -10 -4 -10 -5 0 -13
5 -16 10 -3 6 -2 10 4 10 5 0 13 -4 16 -10z m267 -34 c-3 -6 -7 -5 -10 2 -2 7
-8 9 -13 6 -15 -9 10 -34 26 -28 8 3 24 -3 36 -15 12 -11 27 -18 32 -14 6 4 7
1 1 -8 -5 -8 -9 -23 -10 -34 -2 -39 -4 -45 -15 -45 -5 0 -7 6 -3 12 12 18 12
48 1 48 -5 0 -7 7 -3 15 3 9 0 15 -10 15 -10 0 -14 -6 -10 -15 3 -8 -3 -19
-12 -25 -16 -9 -16 -11 2 -25 23 -18 18 -26 -11 -19 -15 4 -19 11 -15 26 3 14
1 19 -6 14 -7 -4 -12 -1 -12 10 0 12 6 15 21 11 14 -4 19 -2 16 8 -3 7 0 18 6
24 19 19 2 12 -34 -14 -19 -14 -32 -28 -31 -31 2 -3 2 -7 0 -9 -2 -2 -9 5 -16
16 -10 16 -10 20 0 18 18 -3 48 11 48 23 0 5 -4 7 -9 4 -9 -6 -5 49 5 65 3 6
12 2 19 -8 7 -10 11 -22 7 -27z m101 20 c10 1 17 -2 15 -8 -2 -5 -7 -9 -12 -8
-5 1 -13 -4 -17 -12 -7 -10 -9 -10 -9 0 0 6 -7 12 -16 12 -14 0 -14 3 -4 15 7
9 16 12 19 7 3 -5 14 -8 24 -6z m171 -7 c-5 9 -3 12 4 7 18 -11 14 -23 -10
-30 -19 -5 -20 -8 -8 -16 8 -5 23 -7 33 -4 9 3 17 1 17 -5 0 -6 -8 -11 -17
-11 -15 0 -16 -2 -3 -10 13 -8 12 -10 -2 -10 -12 0 -18 -8 -18 -22 0 -17 -3
-19 -12 -10 -10 10 -10 17 0 32 14 24 15 30 3 30 -5 0 -13 -10 -17 -22 -4 -13
-12 -26 -18 -30 -7 -5 -5 -8 5 -8 10 0 15 -8 14 -22 -1 -13 -6 -21 -11 -18 -5
3 -8 10 -8 16 1 6 -13 16 -30 22 -31 12 -71 66 -60 83 5 9 34 13 34 5 0 -2 3
-13 6 -23 6 -16 5 -16 -10 2 -16 18 -17 18 -12 2 3 -10 6 -23 6 -28 0 -6 5 -7
10 -4 6 4 9 1 8 -7 -2 -8 4 -12 17 -10 28 5 45 21 45 43 0 23 -19 35 -26 15
-4 -12 -9 -12 -18 -3 -7 6 -13 17 -13 24 0 10 3 10 15 0 12 -9 16 -9 19 1 3 6
9 12 14 12 6 0 8 -4 4 -9 -3 -5 -1 -12 5 -16 10 -6 14 7 10 35 -1 11 3 9 15
-5 9 -11 13 -14 9 -6z m-399 1 c-3 -5 -1 -10 5 -10 7 0 10 -6 7 -14 -3 -7 1
-23 9 -35 14 -20 14 -21 -8 -22 -13 -1 -27 -1 -31 0 -5 1 -6 -2 -3 -7 2 -4 -8
-13 -25 -19 -17 -7 -31 -7 -35 -2 -3 5 2 9 10 9 9 0 16 5 16 11 0 5 6 7 13 4
6 -4 3 1 -7 9 -11 9 -16 16 -12 16 5 0 3 7 -4 15 -7 9 -10 18 -6 22 3 3 6 1 6
-7 0 -9 3 -10 13 -1 8 6 17 8 20 4 4 -3 7 1 7 10 0 13 9 21 28 26 2 1 0 -3 -3
-9z m79 4 c-7 -3 -10 -15 -7 -27 4 -19 3 -20 -7 -5 -6 9 -17 15 -25 12 -8 -4
-15 -3 -15 0 0 7 39 25 55 25 6 -1 5 -3 -1 -5z m382 -15 c12 -13 15 -22 7 -27
-6 -4 -13 -16 -16 -27 -4 -12 -5 -10 -3 8 2 18 -1 27 -10 27 -8 0 -14 5 -14
11 0 5 5 7 10 4 6 -3 10 -2 10 4 0 5 -6 12 -12 14 -8 3 -8 6 -2 6 6 1 19 -8
30 -20z m-987 -20 c-11 -7 -10 -9 4 -9 9 0 17 -6 17 -12 0 -9 3 -8 10 2 6 9 5
19 -3 29 -10 12 -9 12 11 0 12 -8 22 -17 22 -22 0 -4 -4 -5 -10 -2 -5 3 -10 2
-10 -3 0 -5 10 -14 23 -20 l22 -10 -22 1 c-13 1 -23 4 -23 8 0 4 -8 6 -17 5
-26 -4 -48 30 -31 48 8 8 15 10 17 4 2 -6 -3 -14 -10 -19z m578 -4 c0 -17 -13
-20 -21 -6 -4 5 0 12 6 14 7 3 13 6 14 6 0 1 1 -6 1 -14z m143 11 c0 -3 -4 -8
-10 -11 -5 -3 -10 -1 -10 4 0 6 5 11 10 11 6 0 10 -2 10 -4z m45 -16 c3 -5 1
-10 -4 -10 -6 0 -11 5 -11 10 0 6 2 10 4 10 3 0 8 -4 11 -10z m-670 -10 c-3
-5 -11 -10 -16 -10 -6 0 -7 5 -4 10 3 6 11 10 16 10 6 0 7 -4 4 -10z m-107
-16 c5 -8 19 -17 33 -19 47 -7 59 -11 71 -23 10 -10 7 -12 -12 -10 -18 2 -25
-2 -28 -17 -2 -13 0 -16 5 -8 6 8 14 9 23 3 21 -14 32 -12 24 3 -5 9 -4 9 6 0
13 -12 40 -7 40 9 0 5 -4 6 -10 3 -5 -3 -10 -1 -10 5 0 6 -5 8 -12 4 -6 -4 -8
-3 -5 4 4 5 16 8 27 5 16 -4 19 -2 14 12 -4 9 -10 13 -13 8 -11 -15 -40 -11
-38 6 1 20 39 17 57 -4 12 -15 -3 -65 -20 -65 -6 0 -10 -8 -8 -17 2 -11 -5
-19 -17 -21 -16 -2 -17 -1 -5 7 8 5 12 12 9 15 -6 6 -19 -3 -41 -29 -15 -18
-15 -21 0 -35 14 -13 15 -12 10 2 -8 19 20 34 35 19 16 -16 -32 -41 -60 -30
-19 7 -24 6 -20 -3 7 -19 14 -44 10 -35 -3 4 -8 5 -13 2 -5 -3 -7 13 -6 35 2
25 -1 37 -7 33 -6 -4 -7 -1 -2 6 4 7 16 11 26 8 10 -3 22 -1 25 4 3 5 0 9 -6
9 -6 0 -8 4 -5 10 3 5 -6 12 -20 16 -14 3 -25 10 -25 16 0 5 5 6 10 3 17 -10
11 5 -10 27 l-20 22 6 -34 c4 -19 7 -39 8 -45 0 -5 -9 -11 -21 -13 -17 -2 -23
1 -22 15 0 10 3 13 6 6 8 -22 18 -14 20 17 1 17 -2 30 -8 30 -6 0 -7 -6 -4
-12 4 -7 0 -5 -8 5 -18 21 -28 22 -20 1 6 -16 -15 -37 -29 -28 -14 9 -8 24 7
18 8 -4 15 -1 15 5 0 6 -6 11 -12 12 -10 0 -10 2 0 6 6 2 10 9 7 14 -4 5 0 6
8 3 8 -3 17 2 21 12 5 12 2 15 -9 10 -9 -3 -13 -2 -10 4 9 15 23 12 33 -6z
m804 -11 c0 -10 1 -24 1 -31 -1 -7 5 -11 12 -8 18 6 29 -25 13 -36 -12 -7 -4
-12 14 -9 17 2 -5 -28 -24 -32 -12 -4 -17 -10 -13 -17 6 -9 10 -9 16 1 7 12 9
12 9 0 0 -9 10 -12 35 -9 23 3 35 0 35 -8 0 -7 6 -15 13 -18 6 -3 3 -4 -8 -3
-12 1 -19 -3 -17 -12 3 -16 -35 -51 -57 -51 -14 0 -14 -2 -1 -9 8 -6 18 -7 22
-5 4 3 8 0 8 -5 0 -6 7 -11 15 -11 8 0 15 -4 15 -10 0 -5 5 -10 11 -10 5 0 7
5 3 12 -5 8 -2 9 12 4 10 -4 24 -9 31 -10 7 -1 16 -6 20 -11 4 -4 2 -5 -4 -1
-7 4 -13 3 -13 -2 0 -6 -10 -8 -22 -6 -23 4 -22 4 0 -6 28 -12 84 0 90 18 4
14 -19 12 -31 -3 -5 -6 -7 -3 -3 8 3 11 0 17 -10 17 -8 0 -13 4 -9 9 3 5 1 12
-5 16 -5 3 -10 0 -10 -8 0 -7 -7 -14 -15 -14 -8 0 -15 4 -15 9 0 5 -4 7 -8 4
-5 -3 -9 1 -9 9 0 15 18 16 29 0 5 -6 8 -6 8 1 0 7 7 15 16 18 8 3 12 2 9 -4
-3 -6 -4 -10 -1 -10 2 0 13 -3 23 -7 15 -6 16 -4 6 9 -7 8 -10 18 -6 21 6 6
-10 11 -28 9 -4 -1 -9 11 -11 27 -3 18 0 28 9 28 7 0 13 -4 13 -9 0 -4 3 -7 8
-5 4 1 7 -3 7 -8 0 -5 -4 -9 -9 -7 -5 2 -3 -4 4 -14 9 -10 16 -12 18 -5 2 6 8
11 13 11 6 0 7 -4 4 -10 -3 -5 -3 -10 2 -10 4 0 13 -11 19 -25 8 -15 8 -23 2
-22 -17 3 -19 -18 -3 -38 13 -17 16 -18 25 -5 7 11 10 11 10 2 0 -18 -30 -28
-40 -13 -5 9 -9 6 -13 -8 -3 -12 -1 -24 4 -27 5 -3 9 0 9 5 0 6 3 11 8 11 4 0
6 -54 4 -121 -3 -117 -2 -122 23 -155 41 -54 58 -116 53 -192 -5 -67 -31 -136
-62 -161 -13 -11 -16 -41 -16 -188 0 -148 -3 -182 -20 -234 -49 -144 -152
-247 -291 -290 -90 -28 -389 -28 -481 1 -120 37 -211 117 -271 239 l-32 65 -3
195 -4 194 -33 48 c-70 102 -70 224 0 325 l36 52 -1 119 c-1 65 -1 123 -1 130
1 6 9 10 19 8 9 -1 16 -8 15 -14 -4 -15 37 -8 47 9 4 7 6 19 3 25 -2 7 3 20
13 29 15 16 17 16 29 -1 7 -10 17 -15 21 -11 4 4 13 3 21 -3 10 -9 13 -8 13 0
0 7 5 9 12 5 7 -5 8 -3 3 6 -6 10 -4 12 8 7 10 -3 17 -2 17 3 0 6 9 10 19 10
28 0 32 12 12 37 -21 25 -48 24 -67 -2 -8 -10 -14 -15 -14 -9 0 5 9 20 19 33
18 24 19 24 59 8 22 -9 42 -13 46 -10 3 4 6 1 6 -5 0 -6 14 -11 33 -10 26 1
33 5 33 21 -1 11 6 22 14 24 12 4 13 3 1 -5 -15 -11 -7 -32 12 -32 8 0 8 3 -1
9 -10 6 -10 10 2 21 9 7 13 16 10 21 -3 5 -1 9 4 9 6 0 12 -7 16 -15 3 -8 1
-15 -4 -15 -6 0 -10 -4 -10 -10 0 -12 10 -13 29 -1 11 7 10 13 -4 35 -14 20
-21 24 -31 15 -7 -6 -19 -7 -25 -3 -8 5 -10 3 -4 -7 5 -8 5 -11 0 -7 -4 4 -15
2 -23 -5 -13 -10 -14 -9 -3 11 7 14 8 22 1 22 -5 0 -10 -6 -10 -12 -1 -7 -7 1
-14 17 -7 17 -11 34 -8 39 3 5 0 6 -7 2 -6 -4 -9 -12 -6 -17 4 -5 1 -9 -4 -9
-6 0 -11 11 -11 25 0 23 2 24 20 15 11 -6 20 -7 20 -3 0 12 20 -20 20 -32 0
-5 -5 -3 -10 5 -8 13 -10 12 -10 -2 0 -10 8 -18 18 -19 9 0 25 -2 35 -4 9 -2
15 1 11 6 -3 5 -9 7 -14 4 -9 -6 -23 25 -15 33 3 3 5 -1 5 -8 0 -11 3 -11 12
-2 7 7 17 12 22 12 6 0 5 -4 -3 -9 -7 -5 -10 -14 -7 -20 10 -15 39 -14 33 2
-2 6 0 21 6 31 8 16 6 18 -7 13 -9 -4 -16 -1 -16 6 0 7 9 13 19 13 19 0 21
-21 6 -46 -3 -6 -1 -10 4 -10 6 0 11 5 11 11 0 8 4 8 13 1 10 -8 13 -6 13 9 0
10 -5 19 -11 19 -5 0 -3 4 5 9 20 13 34 2 19 -15 -9 -11 -7 -14 12 -15 13 -1
28 -1 32 0 5 1 5 -3 2 -9 -4 -6 -13 -9 -20 -6 -7 2 -16 -2 -19 -10 -4 -10 -13
-13 -30 -8 -24 6 -44 -10 -26 -21 5 -3 10 -1 10 4 0 6 5 11 12 11 6 0 4 -7 -6
-18 -15 -18 -15 -20 5 -38 22 -19 22 -19 10 3 -9 19 -8 25 10 42 21 19 23 19
36 3 8 -9 12 -11 8 -4 -3 6 -1 12 4 12 16 0 13 -16 -4 -30 -12 -10 -15 -10
-16 1 0 8 -4 5 -9 -6 -12 -27 -12 -43 0 -25 5 8 10 11 10 6 0 -5 8 -2 17 5 13
11 15 11 9 1 -6 -10 2 -12 33 -11 27 2 41 8 41 17 0 7 5 10 10 7 6 -3 10 -1
10 4 0 17 -27 13 -34 -4 -3 -8 -11 -15 -18 -15 -10 0 -10 2 1 9 11 7 9 10 -8
16 -15 4 -20 13 -17 28 3 12 5 28 5 35 1 7 5 11 10 8 10 -7 9 -25 -2 -43 -5
-7 -6 -13 -3 -13 2 0 12 -3 22 -7 10 -3 15 -2 12 3 -4 5 5 10 18 10 13 1 21
-2 18 -7 -3 -5 -1 -9 4 -9 17 0 22 13 10 27 -9 11 -6 12 18 3 l28 -11 -19 21
c-14 16 -15 21 -5 18 8 -2 20 -16 27 -32 17 -38 16 -54 -1 -30 -12 16 -17 17
-28 6 -11 -11 -10 -12 7 -7 18 6 18 5 2 -5 -9 -6 -22 -8 -28 -4 -7 4 -10 -1
-7 -12 1 -9 15 -21 31 -25 19 -5 25 -4 20 4 -5 9 -3 9 8 1 8 -6 40 -23 72 -37
53 -24 58 -25 52 -7 -4 13 0 22 15 30 15 8 19 18 15 40 -4 21 -2 28 7 25 8 -3
14 4 14 20 2 23 -7 30 -31 25 -5 -1 -5 4 2 11 12 12 7 42 -6 34 -4 -2 -8 2 -8
10 0 21 27 19 29 -2z m68 7 c0 -5 -2 -10 -4 -10 -3 0 -8 5 -11 10 -3 6 -1 10
4 10 6 0 11 -4 11 -10z m-110 -50 c-14 -26 -9 -61 7 -49 9 8 12 6 11 -8 0 -10
3 -26 7 -35 5 -12 2 -17 -12 -16 -10 0 -38 -2 -62 -6 -41 -6 -43 -5 -30 11 8
10 20 22 27 26 7 5 10 13 6 18 -3 6 -17 -2 -30 -16 -22 -24 -24 -24 -24 -6 0
11 -3 27 -6 36 -6 13 -2 15 22 9 16 -4 34 -7 41 -7 18 0 16 -18 -3 -46 -16
-22 -16 -23 3 -13 14 8 20 23 22 59 1 26 6 49 11 51 5 2 6 11 3 20 -4 14 -3
14 5 3 7 -9 7 -21 2 -31z m292 16 c12 -18 9 -36 -7 -37 -49 -4 -50 -4 -47 20
3 18 0 22 -12 18 -9 -4 -16 -2 -16 2 0 22 67 20 82 -3z m-712 4 c0 -5 -4 -10
-10 -10 -5 0 -10 5 -10 10 0 6 5 10 10 10 6 0 10 -4 10 -10z m245 -19 c-10 -9
-29 -8 -37 4 -5 6 -8 6 -8 -2 0 -7 8 -17 18 -22 15 -9 15 -10 1 -11 -17 0 -33
26 -24 40 2 4 16 5 30 2 14 -2 23 -7 20 -11z m-365 -5 c0 -7 -8 -20 -17 -27
-11 -10 -14 -10 -9 -1 4 7 2 12 -5 12 -8 0 -8 4 1 15 16 19 30 19 30 1z m726
-9 c4 -4 -2 -7 -14 -7 -12 0 -22 4 -22 9 0 10 26 9 36 -2z m-76 -7 c0 -5 -2
-10 -4 -10 -3 0 -8 5 -11 10 -3 6 -1 10 4 10 6 0 11 -4 11 -10z m103 -8 c-2
-10 -10 -19 -16 -20 -27 -2 -46 -9 -59 -19 -7 -7 -19 -8 -26 -4 -18 11 6 29
36 26 12 -1 22 1 22 5 0 5 19 17 47 29 0 1 -1 -7 -4 -17z m-1012 -12 c5 0 9
-5 9 -11 0 -5 -4 -8 -9 -5 -5 3 -11 -1 -15 -9 -3 -8 0 -15 6 -15 6 0 8 -3 5
-6 -4 -4 -14 -1 -22 6 -13 11 -13 15 -3 21 10 7 10 9 1 9 -7 0 -13 5 -13 11 0
6 7 8 16 5 9 -3 20 -6 25 -6z m1114 -2 c5 4 5 -1 2 -10 -3 -10 -2 -20 3 -23 6
-4 10 -11 10 -16 0 -14 -25 -5 -26 9 -1 7 -2 17 -3 23 0 5 -5 7 -11 4 -5 -3
-10 1 -10 11 0 13 3 14 13 5 8 -6 18 -7 22 -3z m-909 -14 c-3 -8 -2 -12 3 -9
5 3 12 1 15 -4 3 -5 -1 -12 -10 -15 -23 -9 -24 -8 -22 19 1 14 6 25 11 25 5 0
6 -7 3 -16z m59 6 c-3 -5 -1 -10 4 -10 6 0 11 5 11 11 0 5 5 7 11 3 8 -5 8 -8
0 -13 -6 -4 -9 -17 -7 -28 3 -13 -1 -24 -10 -27 -11 -4 -13 1 -10 20 3 16 0
27 -10 31 -13 5 -13 7 -2 14 17 11 20 11 13 -1z m801 -6 c-3 -8 -2 -12 4 -9 6
3 13 -2 17 -12 3 -10 15 -25 26 -34 21 -17 18 -49 -5 -49 -10 0 -10 2 1 9 11
7 10 12 -5 29 -10 12 -22 18 -28 15 -6 -3 -8 -3 -5 1 8 9 -33 54 -43 49 -5 -2
-8 1 -8 6 0 6 12 11 26 11 20 0 25 -4 20 -16z m-65 -24 c6 0 7 6 3 13 -5 8 -3
8 9 -2 24 -19 12 -31 -23 -21 -17 5 -30 6 -30 4 0 -3 -6 -2 -12 2 -9 6 -5 10
12 14 14 4 27 3 28 -2 2 -4 8 -8 13 -8z m-945 -2 c5 -7 3 -8 -6 -3 -10 6 -12
3 -8 -13 5 -18 4 -19 -13 -9 -18 11 -18 13 -2 25 21 15 20 15 29 0z m-80 -40
c-1 -13 -9 -24 -18 -26 -14 -3 -16 1 -11 15 4 10 11 21 17 25 7 5 7 8 -1 8 -7
0 -13 5 -13 11 0 8 4 8 14 0 7 -6 13 -21 12 -33z m1080 17 c-3 -9 0 -15 9 -15
8 0 15 -5 15 -11 0 -10 -13 -5 -37 14 -14 10 -8 27 9 27 5 0 8 -7 4 -15z
m-1022 -28 c4 -16 8 -18 19 -9 11 9 13 7 12 -11 -1 -12 -7 -22 -13 -22 -7 0
-12 4 -11 8 1 5 -11 22 -26 37 -24 25 -25 28 -7 23 11 -2 23 -14 26 -26z m286
12 c0 -5 -4 -9 -8 -9 -5 0 -9 7 -9 15 0 8 4 12 9 9 4 -3 8 -9 8 -15z m-310
-18 c0 -5 -7 -11 -14 -14 -10 -4 -13 -1 -9 9 6 15 23 19 23 5z m204 -17 c4
-11 2 -12 -14 -1 -11 6 -20 15 -20 19 0 12 28 -3 34 -18z m769 1 c8 -19 -3
-24 -28 -14 -18 7 -18 8 -2 8 10 1 15 6 12 11 -3 6 -2 10 3 10 6 0 12 -7 15
-15z m-978 -35 c4 -6 12 -7 18 -3 7 4 6 0 -2 -10 -11 -14 -11 -18 3 -23 9 -3
16 -10 16 -15 0 -6 -9 -5 -20 1 -11 6 -20 19 -20 30 0 28 -17 34 -30 10 -6
-12 -7 -20 -1 -20 5 0 12 6 14 13 3 7 6 5 6 -5 1 -10 -6 -18 -15 -18 -9 0 -12
-5 -8 -12 4 -7 3 -9 -2 -5 -11 10 -13 57 -2 57 4 0 8 4 8 10 0 5 -8 7 -17 4
-15 -5 -15 -4 -4 4 15 11 44 1 56 -18z m173 13 c-10 -2 -18 -9 -18 -14 0 -6
-5 -7 -11 -3 -14 8 8 24 31 23 11 -1 10 -3 -2 -6z m946 -14 c-3 -5 -14 -5 -25
1 -26 14 -24 18 6 12 14 -2 22 -8 19 -13z"/>
<path d="M1515 2430 c3 -5 11 -10 16 -10 6 0 7 5 4 10 -3 6 -11 10 -16 10 -6
0 -7 -4 -4 -10z"/>
<path d="M1440 2411 c0 -6 4 -13 10 -16 6 -3 7 1 4 9 -7 18 -14 21 -14 7z"/>
<path d="M1486 2293 c-6 -14 -5 -15 5 -6 7 7 10 15 7 18 -3 3 -9 -2 -12 -12z"/>
<path d="M1190 2342 c0 -4 4 -13 9 -20 6 -10 10 -10 20 1 9 12 7 16 -9 20 -11
3 -20 2 -20 -1z"/>
<path d="M1720 2290 c0 -5 7 -7 15 -4 8 4 15 8 15 10 0 2 -7 4 -15 4 -8 0 -15
-4 -15 -10z"/>
<path d="M1280 2230 c-8 -5 -12 -12 -9 -15 4 -3 12 1 19 10 14 17 11 19 -10 5z"/>
<path d="M1840 2286 c0 -2 7 -7 16 -10 8 -3 12 -2 9 4 -6 10 -25 14 -25 6z"/>
<path d="M1442 2208 c-17 -17 -15 -25 6 -30 15 -4 18 -1 14 18 -5 28 -4 28
-20 12z"/>
<path d="M1745 2009 c-7 -11 47 -21 57 -11 6 6 -2 11 -22 14 -17 3 -33 1 -35
-3z"/>
<path d="M1137 1970 c18 -17 33 -17 33 -1 0 5 -11 11 -25 14 -25 4 -25 4 -8
-13z"/>
<path d="M1713 1983 c9 -2 25 -2 35 0 9 3 1 5 -18 5 -19 0 -27 -2 -17 -5z"/>
<path d="M1765 1963 c-5 -12 -9 -14 -12 -5 -7 17 -43 15 -43 -3 0 -8 5 -15 11
-15 5 0 7 5 4 10 -8 13 1 13 25 -2 17 -11 23 -9 42 10 l22 22 -21 0 c-11 0
-24 -8 -28 -17z"/>
<path d="M1929 1941 c12 -7 12 -13 3 -24 -7 -7 -9 -17 -5 -20 9 -10 32 25 26
40 -3 7 -13 13 -22 13 -13 0 -14 -2 -2 -9z"/>
<path d="M966 1911 c-6 -9 2 -41 10 -41 12 0 54 25 54 32 0 5 -4 6 -10 3 -5
-3 -18 -1 -29 5 -12 6 -22 6 -25 1z"/>
<path d="M1895 1840 c-3 -5 -2 -10 4 -10 5 0 16 -2 24 -5 8 -4 14 0 14 10 0
17 -32 21 -42 5z"/>
<path d="M1005 1395 c-30 -29 -32 -68 -5 -95 40 -40 110 -11 110 45 0 29 -40
75 -65 75 -9 0 -27 -11 -40 -25z"/>
<path d="M1866 1369 c-47 -37 -25 -119 33 -119 37 0 60 19 67 57 5 26 1 37
-19 57 -32 31 -46 32 -81 5z"/>
<path d="M1113 850 c-52 -32 -42 -100 14 -100 13 0 26 7 29 15 5 13 44 15 265
15 l259 0 0 -29 c0 -30 14 -41 55 -41 24 0 35 17 35 55 0 18 -15 36 -53 65
l-54 40 -259 0 c-241 0 -261 -1 -291 -20z"/>
<path d="M1680 2029 c0 -5 5 -7 10 -4 6 3 10 8 10 11 0 2 -4 4 -10 4 -5 0 -10
-5 -10 -11z"/>
<path d="M1946 2124 c-21 -21 -20 -27 3 -15 10 6 21 7 25 4 3 -3 6 -1 6 5 0
19 -18 23 -34 6z"/>
<path d="M640 385 c0 -27 54 -106 104 -153 111 -104 294 -175 519 -203 109
-14 329 -6 437 16 177 35 333 108 420 195 52 52 100 133 87 146 -3 3 -39 -12
-79 -35 -237 -130 -554 -196 -824 -171 -214 20 -365 62 -543 152 -116 60 -121
62 -121 53z"/>
</g>
</svg>
