<?xml version="1.0" standalone="no"?>
<!DOCTYPE svg PUBLIC "-//W3C//DTD SVG 20010904//EN"
 "http://www.w3.org/TR/2001/REC-SVG-20010904/DTD/svg10.dtd">
<svg version="1.0" xmlns="http://www.w3.org/2000/svg"
 width="1294.000000pt" height="1294.000000pt" viewBox="0 0 1294.000000 1294.000000"
 preserveAspectRatio="xMidYMid meet">
<metadata>
Created by potrace 1.11, written by Peter Selinger 2001-2013
</metadata>
<g transform="translate(0.000000,1294.000000) scale(0.100000,-0.100000)"
fill="#000000" stroke="none">
<path d="M1835 9643 c-8 -12 -15 -24 -15 -27 0 -2 -18 -34 -40 -70 -22 -36
-40 -70 -40 -76 0 -5 -4 -10 -10 -10 -5 0 -10 -4 -10 -9 0 -7 -93 -173 -110
-196 -4 -5 -21 -35 -37 -65 -72 -131 -158 -276 -167 -282 -6 -4 -7 -8 -3 -8 4
0 -4 -17 -18 -37 -14 -21 -25 -43 -25 -49 0 -7 -3 -14 -8 -16 -10 -4 -102
-165 -102 -178 0 -5 -4 -10 -9 -10 -5 0 -11 -8 -15 -17 -3 -10 -15 -31 -26
-48 -11 -16 -24 -39 -29 -50 -5 -11 -33 -61 -63 -110 -29 -50 -61 -106 -71
-125 -19 -38 -39 -72 -47 -80 -3 -3 -14 -23 -25 -45 -11 -22 -23 -42 -26 -45
-3 -3 -23 -36 -44 -75 -20 -38 -41 -74 -45 -80 -4 -5 -17 -27 -29 -47 -51 -91
-120 -211 -131 -228 -6 -8 -15 -27 -21 -42 -6 -16 -15 -28 -20 -28 -5 0 -9 -4
-9 -9 0 -8 -163 -295 -270 -476 -26 -44 -58 -98 -70 -120 -77 -137 -157 -272
-167 -283 -7 -7 -13 -22 -13 -32 0 -10 -4 -20 -8 -22 -5 -1 -23 -30 -42 -63
-18 -33 -36 -62 -39 -65 -3 -3 -12 -15 -18 -27 -11 -20 -6 -34 52 -133 35 -61
67 -119 70 -130 4 -11 11 -20 16 -20 5 0 9 -4 9 -9 0 -4 47 -90 105 -190 58
-99 105 -185 105 -191 0 -5 5 -10 10 -10 6 0 10 -4 10 -9 0 -6 176 -318 211
-371 5 -8 15 -26 21 -40 7 -14 23 -39 35 -56 13 -17 23 -33 23 -36 0 -3 36
-67 80 -143 44 -76 80 -140 80 -142 0 -3 8 -17 19 -31 10 -15 30 -48 45 -74
64 -116 81 -145 103 -180 12 -21 23 -40 23 -42 0 -3 14 -25 30 -49 17 -25 30
-48 30 -52 0 -4 17 -35 38 -69 21 -34 43 -72 50 -86 7 -14 18 -34 25 -45 7
-11 32 -54 56 -95 24 -41 76 -131 116 -200 77 -133 103 -178 143 -250 13 -25
31 -52 38 -61 8 -8 14 -19 14 -23 0 -4 22 -45 50 -92 27 -47 50 -89 50 -93 0
-5 4 -11 8 -13 4 -1 44 -67 89 -146 45 -79 83 -139 86 -135 3 4 47 82 99 173
52 91 118 205 146 254 29 49 52 93 52 97 0 5 4 9 9 9 5 0 13 10 17 23 4 12 18
39 31 60 13 21 33 54 44 73 10 19 27 49 37 67 11 17 60 103 110 190 51 88 92
163 92 168 0 5 4 9 9 9 5 0 11 8 14 17 4 10 18 37 32 60 49 83 196 337 225
390 8 16 29 51 45 78 17 28 42 71 55 98 14 26 28 47 32 47 5 0 8 4 8 9 0 8
157 285 247 436 13 22 28 52 34 68 6 15 15 27 20 27 5 0 9 4 9 10 0 5 18 39
40 75 22 36 40 69 40 74 0 5 3 11 8 13 4 2 15 19 26 38 49 91 80 145 85 150 3
3 13 19 21 35 8 17 32 57 52 91 21 34 38 66 38 72 0 6 4 12 8 14 5 2 23 30 41
63 19 33 42 76 53 95 10 19 29 52 42 73 l23 38 17 -25 c9 -14 16 -30 16 -36 0
-5 5 -10 10 -10 6 0 10 -4 10 -9 0 -7 141 -258 170 -301 5 -8 22 -37 37 -65
15 -27 32 -57 38 -66 5 -9 22 -38 38 -65 15 -27 36 -62 46 -79 10 -16 29 -50
43 -75 46 -82 133 -233 153 -265 7 -11 13 -24 15 -30 1 -5 15 -29 31 -52 16
-23 29 -44 29 -46 0 -3 27 -51 60 -107 33 -56 60 -104 60 -106 0 -2 17 -33 38
-67 56 -92 59 -98 90 -152 16 -27 39 -68 52 -90 12 -22 34 -60 48 -85 13 -25
32 -53 41 -64 9 -10 16 -21 15 -25 -1 -3 4 -15 11 -26 49 -78 165 -287 165
-295 0 -5 3 -10 8 -10 4 0 16 -17 27 -37 11 -21 64 -114 117 -206 54 -93 98
-171 98 -174 0 -4 6 -14 14 -22 7 -9 27 -41 43 -71 17 -30 54 -95 83 -145 29
-49 60 -103 68 -120 9 -16 18 -32 21 -35 3 -3 14 -21 25 -40 39 -75 79 -145
85 -150 3 -3 11 -14 17 -25 11 -20 23 -20 3707 -23 l3695 -2 -25 47 c-14 27
-29 53 -33 58 -4 6 -18 28 -30 50 -55 97 -73 128 -154 268 -47 82 -86 152 -86
158 0 5 -4 9 -9 9 -5 0 -14 15 -21 33 -8 17 -19 39 -25 47 -13 16 -60 98 -79
137 -6 13 -14 23 -18 23 -5 0 -8 5 -8 10 0 6 -38 76 -85 156 -47 81 -85 148
-85 151 0 2 -16 29 -35 59 -19 30 -35 57 -35 59 0 3 -11 22 -24 43 -31 50
-175 298 -198 342 -20 39 -40 72 -48 80 -3 3 -14 23 -26 45 -12 22 -45 81 -74
130 -55 94 -78 133 -108 188 -11 17 -45 77 -77 132 -32 55 -68 118 -81 140
-12 22 -45 81 -74 130 -29 50 -60 104 -70 120 -36 62 -244 422 -266 460 -13
22 -33 59 -46 83 l-22 42 -1850 0 -1851 0 -55 96 c-30 52 -67 117 -81 142 -14
26 -36 63 -47 82 -12 19 -27 46 -34 60 -7 14 -15 27 -19 30 -3 3 -19 30 -36
60 -16 30 -71 126 -121 213 -51 87 -92 162 -92 168 0 5 -3 9 -7 9 -5 0 -13 10
-19 23 -23 49 -59 112 -66 115 -5 2 -8 8 -8 14 0 6 -13 30 -30 55 -17 24 -30
47 -30 50 0 3 -31 59 -70 124 -38 64 -70 120 -70 123 0 3 -12 24 -28 48 -48
75 -52 82 -75 128 -12 25 -24 47 -27 50 -5 4 -101 169 -230 395 -9 17 -31 54
-49 83 -17 29 -31 55 -31 58 0 3 -5 10 -10 17 -6 7 -52 84 -102 172 -50 88
-98 172 -107 187 -14 23 -187 325 -260 452 -13 22 -31 52 -40 66 -9 14 -22 36
-29 50 -12 24 -53 93 -69 115 -6 7 -591 11 -1856 11 l-1848 -1 -14 -22z"/>
</g>
</svg>
