<svg xmlns="http://www.w3.org/2000/svg" width="1868.042" height="1194.813" viewBox="0 0 1868.042 1194.813">
  <g id="bg_circles" data-name="bg circles" transform="translate(8.05 -3390.875)" opacity="0.1">
    <g id="Group_16" data-name="Group 16" transform="translate(185.912 3425.335) rotate(-23)">
      <path id="Path_34" data-name="Path 34" d="M121.487,9.681A61.215,61.215,0,0,0,120.716,0H.771A61.168,61.168,0,0,0,0,9.681c0,.1,0,.2,0,.307h121.48C121.484,9.885,121.487,9.783,121.487,9.681Z" transform="translate(0 51.063)" fill="rgba(46,31,58,0.37)"/>
      <path id="Path_35" data-name="Path 35" d="M97.81,9.987A61.1,61.1,0,0,0,88.555,0H9.255A61.1,61.1,0,0,0,0,9.987Z" transform="translate(11.839 14.726)" fill="rgba(46,31,58,0.37)"/>
      <path id="Path_36" data-name="Path 36" d="M0,0A60.85,60.85,0,0,0,14.363,9.783H67.62A60.844,60.844,0,0,0,81.983,0Z" transform="translate(19.752 105.569)" fill="rgba(46,31,58,0.37)"/>
      <path id="Path_37" data-name="Path 37" d="M116.146,9.988A60.364,60.364,0,0,0,112.068,0H4.078A60.4,60.4,0,0,0,0,9.988Z" transform="translate(2.671 32.894)" fill="rgba(46,31,58,0.37)"/>
      <path id="Path_38" data-name="Path 38" d="M103.04,9.988A60.757,60.757,0,0,0,109.188,0H0A60.755,60.755,0,0,0,6.148,9.988Z" transform="translate(6.15 87.4)" fill="rgba(46,31,58,0.37)"/>
      <path id="Path_39" data-name="Path 39" d="M54.9,6.545a60.842,60.842,0,0,0-54.9,0Z" transform="translate(33.292 0)" fill="rgba(46,31,58,0.37)"/>
      <path id="Path_40" data-name="Path 40" d="M118.03,9.988A60.4,60.4,0,0,0,120.3,0H0A60.357,60.357,0,0,0,2.271,9.988Z" transform="translate(0.593 69.231)" fill="rgba(46,31,58,0.37)"/>
    </g>
    <g id="Group_16-2" data-name="Group 16" transform="translate(789.865 3643.793) rotate(-23)">
      <path id="Path_34-2" data-name="Path 34" d="M121.487,9.681A61.215,61.215,0,0,0,120.716,0H.771A61.168,61.168,0,0,0,0,9.681c0,.1,0,.2,0,.307h121.48C121.484,9.885,121.487,9.783,121.487,9.681Z" transform="translate(0 51.063)" fill="rgba(46,31,58,0.37)"/>
      <path id="Path_35-2" data-name="Path 35" d="M97.81,9.987A61.1,61.1,0,0,0,88.555,0H9.255A61.1,61.1,0,0,0,0,9.987Z" transform="translate(11.839 14.726)" fill="rgba(46,31,58,0.37)"/>
      <path id="Path_36-2" data-name="Path 36" d="M0,0A60.85,60.85,0,0,0,14.363,9.783H67.62A60.844,60.844,0,0,0,81.983,0Z" transform="translate(19.752 105.569)" fill="rgba(46,31,58,0.37)"/>
      <path id="Path_37-2" data-name="Path 37" d="M116.146,9.988A60.364,60.364,0,0,0,112.068,0H4.078A60.4,60.4,0,0,0,0,9.988Z" transform="translate(2.671 32.894)" fill="rgba(46,31,58,0.37)"/>
      <path id="Path_38-2" data-name="Path 38" d="M103.04,9.988A60.757,60.757,0,0,0,109.188,0H0A60.755,60.755,0,0,0,6.148,9.988Z" transform="translate(6.15 87.4)" fill="rgba(46,31,58,0.37)"/>
      <path id="Path_39-2" data-name="Path 39" d="M54.9,6.545a60.842,60.842,0,0,0-54.9,0Z" transform="translate(33.292)" fill="rgba(46,31,58,0.37)"/>
      <path id="Path_40-2" data-name="Path 40" d="M118.03,9.988A60.4,60.4,0,0,0,120.3,0H0A60.357,60.357,0,0,0,2.271,9.988Z" transform="translate(0.593 69.231)" fill="rgba(46,31,58,0.37)"/>
    </g>
    <g id="Group_16-3" data-name="Group 16" transform="translate(1121.818 3540.25) rotate(-23)">
      <path id="Path_34-3" data-name="Path 34" d="M121.487,9.681A61.215,61.215,0,0,0,120.716,0H.771A61.168,61.168,0,0,0,0,9.681c0,.1,0,.2,0,.307h121.48C121.484,9.885,121.487,9.783,121.487,9.681Z" transform="translate(0 51.063)" fill="rgba(46,31,58,0.37)"/>
      <path id="Path_35-3" data-name="Path 35" d="M97.81,9.987A61.1,61.1,0,0,0,88.555,0H9.255A61.1,61.1,0,0,0,0,9.987Z" transform="translate(11.839 14.726)" fill="rgba(46,31,58,0.37)"/>
      <path id="Path_36-3" data-name="Path 36" d="M0,0A60.85,60.85,0,0,0,14.363,9.783H67.62A60.844,60.844,0,0,0,81.983,0Z" transform="translate(19.752 105.569)" fill="rgba(46,31,58,0.37)"/>
      <path id="Path_37-3" data-name="Path 37" d="M116.146,9.988A60.364,60.364,0,0,0,112.068,0H4.078A60.4,60.4,0,0,0,0,9.988Z" transform="translate(2.671 32.894)" fill="rgba(46,31,58,0.37)"/>
      <path id="Path_38-3" data-name="Path 38" d="M103.04,9.988A60.757,60.757,0,0,0,109.188,0H0A60.755,60.755,0,0,0,6.148,9.988Z" transform="translate(6.15 87.4)" fill="rgba(46,31,58,0.37)"/>
      <path id="Path_39-3" data-name="Path 39" d="M54.9,6.545a60.842,60.842,0,0,0-54.9,0Z" transform="translate(33.292)" fill="rgba(46,31,58,0.37)"/>
      <path id="Path_40-3" data-name="Path 40" d="M118.03,9.988A60.4,60.4,0,0,0,120.3,0H0A60.357,60.357,0,0,0,2.271,9.988Z" transform="translate(0.593 69.231)" fill="rgba(46,31,58,0.37)"/>
    </g>
    <g id="Group_16-4" data-name="Group 16" transform="translate(1589.771 3597.708) rotate(-23)">
      <path id="Path_34-4" data-name="Path 34" d="M121.487,9.681A61.215,61.215,0,0,0,120.716,0H.771A61.168,61.168,0,0,0,0,9.681c0,.1,0,.2,0,.307h121.48C121.484,9.885,121.487,9.783,121.487,9.681Z" transform="translate(0 51.063)" fill="rgba(46,31,58,0.37)"/>
      <path id="Path_35-4" data-name="Path 35" d="M97.81,9.987A61.1,61.1,0,0,0,88.555,0H9.255A61.1,61.1,0,0,0,0,9.987Z" transform="translate(11.839 14.726)" fill="rgba(46,31,58,0.37)"/>
      <path id="Path_36-4" data-name="Path 36" d="M0,0A60.85,60.85,0,0,0,14.363,9.783H67.62A60.844,60.844,0,0,0,81.983,0Z" transform="translate(19.752 105.569)" fill="rgba(46,31,58,0.37)"/>
      <path id="Path_37-4" data-name="Path 37" d="M116.146,9.988A60.364,60.364,0,0,0,112.068,0H4.078A60.4,60.4,0,0,0,0,9.988Z" transform="translate(2.671 32.894)" fill="rgba(46,31,58,0.37)"/>
      <path id="Path_38-4" data-name="Path 38" d="M103.04,9.988A60.757,60.757,0,0,0,109.188,0H0A60.755,60.755,0,0,0,6.148,9.988Z" transform="translate(6.15 87.4)" fill="rgba(46,31,58,0.37)"/>
      <path id="Path_39-4" data-name="Path 39" d="M54.9,6.545a60.842,60.842,0,0,0-54.9,0Z" transform="translate(33.292 0)" fill="rgba(46,31,58,0.37)"/>
      <path id="Path_40-4" data-name="Path 40" d="M118.03,9.988A60.4,60.4,0,0,0,120.3,0H0A60.357,60.357,0,0,0,2.271,9.988Z" transform="translate(0.593 69.231)" fill="rgba(46,31,58,0.37)"/>
    </g>
    <g id="Group_16-5" data-name="Group 16" transform="translate(-61.416 3778.713) rotate(-23)">
      <path id="Path_34-5" data-name="Path 34" d="M423.431,33.742A213.361,213.361,0,0,0,420.744,0H2.687A213.2,213.2,0,0,0,0,33.742c0,.357.011.711.013,1.069h423.4C423.42,34.453,423.431,34.1,423.431,33.742Z" transform="translate(0 177.975)" fill="rgba(46,31,58,0.37)"/>
      <path id="Path_35-5" data-name="Path 35" d="M340.906,34.81A212.964,212.964,0,0,0,308.647,0H32.259A212.956,212.956,0,0,0,0,34.81Z" transform="translate(41.263 51.325)" fill="rgba(46,31,58,0.37)"/>
      <path id="Path_36-5" data-name="Path 36" d="M0,0A212.086,212.086,0,0,0,50.062,34.1h185.62A212.064,212.064,0,0,0,285.745,0Z" transform="translate(68.843 367.949)" fill="rgba(46,31,58,0.37)"/>
      <path id="Path_37-5" data-name="Path 37" d="M404.813,34.811A210.391,210.391,0,0,0,390.6,0H14.213A210.507,210.507,0,0,0,0,34.811Z" transform="translate(9.308 114.65)" fill="rgba(46,31,58,0.37)"/>
      <path id="Path_38-5" data-name="Path 38" d="M359.135,34.811A211.761,211.761,0,0,0,380.563,0H0A211.755,211.755,0,0,0,21.427,34.811Z" transform="translate(21.434 304.624)" fill="rgba(46,31,58,0.37)"/>
      <path id="Path_39-5" data-name="Path 39" d="M191.357,22.812A212.058,212.058,0,0,0,0,22.812Z" transform="translate(116.036)" fill="rgba(46,31,58,0.37)"/>
      <path id="Path_40-5" data-name="Path 40" d="M411.38,34.812A210.507,210.507,0,0,0,419.3,0H0A210.368,210.368,0,0,0,7.917,34.812Z" transform="translate(2.067 241.299)" fill="rgba(46,31,58,0.37)"/>
    </g>
    <g id="Group_16-6" data-name="Group 16" transform="translate(601.517 3909.133) rotate(-23)">
      <path id="Path_34-6" data-name="Path 34" d="M121.487,9.681A61.215,61.215,0,0,0,120.716,0H.771A61.168,61.168,0,0,0,0,9.681c0,.1,0,.2,0,.307h121.48C121.484,9.885,121.487,9.783,121.487,9.681Z" transform="translate(0 51.063)" fill="rgba(46,31,58,0.37)"/>
      <path id="Path_35-6" data-name="Path 35" d="M97.81,9.987A61.1,61.1,0,0,0,88.555,0H9.255A61.1,61.1,0,0,0,0,9.987Z" transform="translate(11.839 14.726)" fill="rgba(46,31,58,0.37)"/>
      <path id="Path_36-6" data-name="Path 36" d="M0,0A60.85,60.85,0,0,0,14.363,9.783H67.62A60.844,60.844,0,0,0,81.983,0Z" transform="translate(19.752 105.569)" fill="rgba(46,31,58,0.37)"/>
      <path id="Path_37-6" data-name="Path 37" d="M116.146,9.988A60.364,60.364,0,0,0,112.068,0H4.078A60.4,60.4,0,0,0,0,9.988Z" transform="translate(2.671 32.894)" fill="rgba(46,31,58,0.37)"/>
      <path id="Path_38-6" data-name="Path 38" d="M103.04,9.988A60.757,60.757,0,0,0,109.188,0H0A60.755,60.755,0,0,0,6.148,9.988Z" transform="translate(6.15 87.4)" fill="rgba(46,31,58,0.37)"/>
      <path id="Path_39-6" data-name="Path 39" d="M54.9,6.545a60.842,60.842,0,0,0-54.9,0Z" transform="translate(33.292 0)" fill="rgba(46,31,58,0.37)"/>
      <path id="Path_40-6" data-name="Path 40" d="M118.03,9.988A60.4,60.4,0,0,0,120.3,0H0A60.357,60.357,0,0,0,2.271,9.988Z" transform="translate(0.593 69.231)" fill="rgba(46,31,58,0.37)"/>
    </g>
    <g id="Group_16-7" data-name="Group 16" transform="translate(1069.47 3966.59) rotate(-23)">
      <path id="Path_34-7" data-name="Path 34" d="M121.487,9.681A61.215,61.215,0,0,0,120.716,0H.771A61.168,61.168,0,0,0,0,9.681c0,.1,0,.2,0,.307h121.48C121.484,9.885,121.487,9.783,121.487,9.681Z" transform="translate(0 51.063)" fill="rgba(46,31,58,0.37)"/>
      <path id="Path_35-7" data-name="Path 35" d="M97.81,9.987A61.1,61.1,0,0,0,88.555,0H9.255A61.1,61.1,0,0,0,0,9.987Z" transform="translate(11.839 14.726)" fill="rgba(46,31,58,0.37)"/>
      <path id="Path_36-7" data-name="Path 36" d="M0,0A60.85,60.85,0,0,0,14.363,9.783H67.62A60.844,60.844,0,0,0,81.983,0Z" transform="translate(19.752 105.569)" fill="rgba(46,31,58,0.37)"/>
      <path id="Path_37-7" data-name="Path 37" d="M116.146,9.988A60.364,60.364,0,0,0,112.068,0H4.078A60.4,60.4,0,0,0,0,9.988Z" transform="translate(2.671 32.894)" fill="rgba(46,31,58,0.37)"/>
      <path id="Path_38-7" data-name="Path 38" d="M103.04,9.988A60.757,60.757,0,0,0,109.188,0H0A60.755,60.755,0,0,0,6.148,9.988Z" transform="translate(6.15 87.4)" fill="rgba(46,31,58,0.37)"/>
      <path id="Path_39-7" data-name="Path 39" d="M54.9,6.545a60.842,60.842,0,0,0-54.9,0Z" transform="translate(33.292 0)" fill="rgba(46,31,58,0.37)"/>
      <path id="Path_40-7" data-name="Path 40" d="M118.03,9.988A60.4,60.4,0,0,0,120.3,0H0A60.357,60.357,0,0,0,2.271,9.988Z" transform="translate(0.593 69.231)" fill="rgba(46,31,58,0.37)"/>
    </g>
    <g id="Group_16-8" data-name="Group 16" transform="translate(1537.423 4024.047) rotate(-23)">
      <path id="Path_34-8" data-name="Path 34" d="M121.487,9.681A61.215,61.215,0,0,0,120.716,0H.771A61.168,61.168,0,0,0,0,9.681c0,.1,0,.2,0,.307h121.48C121.484,9.885,121.487,9.783,121.487,9.681Z" transform="translate(0 51.063)" fill="rgba(46,31,58,0.37)"/>
      <path id="Path_35-8" data-name="Path 35" d="M97.81,9.987A61.1,61.1,0,0,0,88.555,0H9.255A61.1,61.1,0,0,0,0,9.987Z" transform="translate(11.839 14.726)" fill="rgba(46,31,58,0.37)"/>
      <path id="Path_36-8" data-name="Path 36" d="M0,0A60.85,60.85,0,0,0,14.363,9.783H67.62A60.844,60.844,0,0,0,81.983,0Z" transform="translate(19.752 105.569)" fill="rgba(46,31,58,0.37)"/>
      <path id="Path_37-8" data-name="Path 37" d="M116.146,9.988A60.364,60.364,0,0,0,112.068,0H4.078A60.4,60.4,0,0,0,0,9.988Z" transform="translate(2.671 32.894)" fill="rgba(46,31,58,0.37)"/>
      <path id="Path_38-8" data-name="Path 38" d="M103.04,9.988A60.757,60.757,0,0,0,109.188,0H0A60.755,60.755,0,0,0,6.148,9.988Z" transform="translate(6.15 87.4)" fill="rgba(46,31,58,0.37)"/>
      <path id="Path_39-8" data-name="Path 39" d="M54.9,6.545a60.842,60.842,0,0,0-54.9,0Z" transform="translate(33.292)" fill="rgba(46,31,58,0.37)"/>
      <path id="Path_40-8" data-name="Path 40" d="M118.03,9.988A60.4,60.4,0,0,0,120.3,0H0A60.357,60.357,0,0,0,2.271,9.988Z" transform="translate(0.593 69.231)" fill="rgba(46,31,58,0.37)"/>
    </g>
    <g id="Group_16-9" data-name="Group 16" transform="translate(81.216 4278.015) rotate(-23)">
      <path id="Path_34-9" data-name="Path 34" d="M121.487,9.681A61.215,61.215,0,0,0,120.716,0H.771A61.168,61.168,0,0,0,0,9.681c0,.1,0,.2,0,.307h121.48C121.484,9.885,121.487,9.783,121.487,9.681Z" transform="translate(0 51.063)" fill="rgba(46,31,58,0.37)"/>
      <path id="Path_35-9" data-name="Path 35" d="M97.81,9.987A61.1,61.1,0,0,0,88.555,0H9.255A61.1,61.1,0,0,0,0,9.987Z" transform="translate(11.839 14.726)" fill="rgba(46,31,58,0.37)"/>
      <path id="Path_36-9" data-name="Path 36" d="M0,0A60.85,60.85,0,0,0,14.363,9.783H67.62A60.844,60.844,0,0,0,81.983,0Z" transform="translate(19.752 105.569)" fill="rgba(46,31,58,0.37)"/>
      <path id="Path_37-9" data-name="Path 37" d="M116.146,9.988A60.364,60.364,0,0,0,112.068,0H4.078A60.4,60.4,0,0,0,0,9.988Z" transform="translate(2.671 32.894)" fill="rgba(46,31,58,0.37)"/>
      <path id="Path_38-9" data-name="Path 38" d="M103.04,9.988A60.757,60.757,0,0,0,109.188,0H0A60.755,60.755,0,0,0,6.148,9.988Z" transform="translate(6.15 87.4)" fill="rgba(46,31,58,0.37)"/>
      <path id="Path_39-9" data-name="Path 39" d="M54.9,6.545a60.842,60.842,0,0,0-54.9,0Z" transform="translate(33.292)" fill="rgba(46,31,58,0.37)"/>
      <path id="Path_40-9" data-name="Path 40" d="M118.03,9.988A60.4,60.4,0,0,0,120.3,0H0A60.357,60.357,0,0,0,2.271,9.988Z" transform="translate(0.593 69.231)" fill="rgba(46,31,58,0.37)"/>
    </g>
    <g id="Group_16-10" data-name="Group 16" transform="translate(586.592 4260.643) rotate(-23)">
      <path id="Path_34-10" data-name="Path 34" d="M77.025,6.138A38.812,38.812,0,0,0,76.536,0H.489A38.782,38.782,0,0,0,0,6.138c0,.065,0,.129,0,.194h77.02C77.023,6.267,77.025,6.2,77.025,6.138Z" transform="translate(0 32.375)" fill="rgba(46,31,58,0.37)"/>
      <path id="Path_35-10" data-name="Path 35" d="M62.013,6.332A38.74,38.74,0,0,0,56.145,0H5.868A38.738,38.738,0,0,0,0,6.332Z" transform="translate(7.506 9.336)" fill="rgba(46,31,58,0.37)"/>
      <path id="Path_36-10" data-name="Path 36" d="M0,0A38.58,38.58,0,0,0,9.107,6.2H42.872A38.576,38.576,0,0,0,51.979,0Z" transform="translate(12.523 66.933)" fill="rgba(46,31,58,0.37)"/>
      <path id="Path_37-10" data-name="Path 37" d="M73.638,6.332A38.272,38.272,0,0,0,71.053,0H2.585A38.293,38.293,0,0,0,0,6.332Z" transform="translate(1.693 20.856)" fill="rgba(46,31,58,0.37)"/>
      <path id="Path_38-10" data-name="Path 38" d="M65.329,6.332A38.521,38.521,0,0,0,69.227,0H0A38.52,38.52,0,0,0,3.9,6.332Z" transform="translate(3.899 55.413)" fill="rgba(46,31,58,0.37)"/>
      <path id="Path_39-10" data-name="Path 39" d="M34.809,4.15A38.575,38.575,0,0,0,0,4.15Z" transform="translate(21.108 0)" fill="rgba(46,31,58,0.37)"/>
      <path id="Path_40-10" data-name="Path 40" d="M74.833,6.333A38.293,38.293,0,0,0,76.273,0H0A38.267,38.267,0,0,0,1.44,6.333Z" transform="translate(0.376 43.894)" fill="rgba(46,31,58,0.37)"/>
    </g>
    <g id="Group_16-11" data-name="Group 16" transform="translate(971.491 4252.844) rotate(-23)">
      <path id="Path_34-11" data-name="Path 34" d="M171.707,13.683A86.52,86.52,0,0,0,170.618,0H1.09A86.454,86.454,0,0,0,0,13.683c0,.145,0,.288.005.433H171.7C171.7,13.971,171.707,13.828,171.707,13.683Z" transform="translate(0 72.171)" fill="rgba(46,31,58,0.37)"/>
      <path id="Path_35-11" data-name="Path 35" d="M138.242,14.116A86.36,86.36,0,0,0,125.161,0H13.081A86.357,86.357,0,0,0,0,14.116Z" transform="translate(16.733 20.813)" fill="rgba(46,31,58,0.37)"/>
      <path id="Path_36-11" data-name="Path 36" d="M0,0A86,86,0,0,0,20.3,13.827H95.572A86,86,0,0,0,115.873,0Z" transform="translate(27.917 149.208)" fill="rgba(46,31,58,0.37)"/>
      <path id="Path_37-11" data-name="Path 37" d="M164.157,14.116A85.316,85.316,0,0,0,158.394,0H5.763A85.364,85.364,0,0,0,0,14.116Z" transform="translate(3.775 46.492)" fill="rgba(46,31,58,0.37)"/>
      <path id="Path_38-11" data-name="Path 38" d="M145.634,14.116A85.872,85.872,0,0,0,154.324,0H0A85.869,85.869,0,0,0,8.689,14.116Z" transform="translate(8.692 123.529)" fill="rgba(46,31,58,0.37)"/>
      <path id="Path_39-11" data-name="Path 39" d="M77.6,9.25A85.992,85.992,0,0,0,0,9.25Z" transform="translate(47.054 0)" fill="rgba(46,31,58,0.37)"/>
      <path id="Path_40-11" data-name="Path 40" d="M166.82,14.117A85.363,85.363,0,0,0,170.03,0H0A85.307,85.307,0,0,0,3.21,14.117Z" transform="translate(0.838 97.85)" fill="rgba(46,31,58,0.37)"/>
    </g>
    <g id="Group_16-12" data-name="Group 16" transform="translate(1485.075 4450.387) rotate(-23)">
      <path id="Path_34-12" data-name="Path 34" d="M121.487,9.681A61.215,61.215,0,0,0,120.716,0H.771A61.168,61.168,0,0,0,0,9.681c0,.1,0,.2,0,.307h121.48C121.484,9.885,121.487,9.783,121.487,9.681Z" transform="translate(0 51.063)" fill="rgba(46,31,58,0.37)"/>
      <path id="Path_35-12" data-name="Path 35" d="M97.81,9.987A61.1,61.1,0,0,0,88.555,0H9.255A61.1,61.1,0,0,0,0,9.987Z" transform="translate(11.839 14.726)" fill="rgba(46,31,58,0.37)"/>
      <path id="Path_36-12" data-name="Path 36" d="M0,0A60.85,60.85,0,0,0,14.363,9.783H67.62A60.844,60.844,0,0,0,81.983,0Z" transform="translate(19.752 105.569)" fill="rgba(46,31,58,0.37)"/>
      <path id="Path_37-12" data-name="Path 37" d="M116.146,9.988A60.364,60.364,0,0,0,112.068,0H4.078A60.4,60.4,0,0,0,0,9.988Z" transform="translate(2.671 32.894)" fill="rgba(46,31,58,0.37)"/>
      <path id="Path_38-12" data-name="Path 38" d="M103.04,9.988A60.757,60.757,0,0,0,109.188,0H0A60.755,60.755,0,0,0,6.148,9.988Z" transform="translate(6.15 87.4)" fill="rgba(46,31,58,0.37)"/>
      <path id="Path_39-12" data-name="Path 39" d="M54.9,6.545a60.842,60.842,0,0,0-54.9,0Z" transform="translate(33.292)" fill="rgba(46,31,58,0.37)"/>
      <path id="Path_40-12" data-name="Path 40" d="M118.03,9.988A60.4,60.4,0,0,0,120.3,0H0A60.357,60.357,0,0,0,2.271,9.988Z" transform="translate(0.593 69.231)" fill="rgba(46,31,58,0.37)"/>
    </g>
    <g id="Group_22" data-name="Group 22" transform="translate(2014.472 3446.198) rotate(45)">
      <g id="Group_17" data-name="Group 17" transform="translate(-1584.574 244.384)">
        <circle id="Ellipse_13" data-name="Ellipse 13" cx="33.735" cy="33.735" r="33.735" transform="translate(1275.272)" fill="#4a326a"/>
      </g>
      <circle id="Ellipse_17" data-name="Ellipse 17" cx="33.735" cy="33.735" r="33.735" transform="translate(-309.302 696.296)" fill="#4a326a"/>
      <circle id="Ellipse_18" data-name="Ellipse 18" cx="151.735" cy="151.735" r="151.735" transform="translate(49.738 571.677)" fill="#4a326a"/>
      <g id="Group_19" data-name="Group 19" transform="translate(-1584.574 1148.208)">
        <circle id="Ellipse_19" data-name="Ellipse 19" cx="33.735" cy="33.735" r="33.735" transform="translate(637.636)" fill="#4a326a"/>
        <circle id="Ellipse_21" data-name="Ellipse 21" cx="33.735" cy="33.735" r="33.735" transform="translate(1275.272)" fill="#4a326a"/>
        <circle id="Ellipse_22" data-name="Ellipse 22" cx="33.735" cy="33.735" r="33.735" transform="translate(1912.908)" fill="#4a326a"/>
      </g>
    </g>
  </g>
</svg>
