<svg xmlns="http://www.w3.org/2000/svg" viewBox="0 0 647.03 320.11"><defs><style>.cls-1{fill:#bbb532;}.cls-2{fill:#f4ea10;}.cls-3{fill:#ddd322;}.cls-4{fill:#9b9635;}</style></defs><g id="Vrstva_2" data-name="Vrstva 2"><g id="Vrstva_1-2" data-name="Vrstva 1"><polygon class="cls-1" points="554.63 160.05 462.22 320.11 647.03 320.11 554.63 160.05"/><polygon class="cls-1" points="277.4 0 185 160.05 369.81 160.05 277.4 0"/><polygon class="cls-2" points="369.81 160.05 277.4 320.11 462.22 320.11 369.81 160.05"/><polygon class="cls-2" points="92.41 0.28 0 160.34 184.81 160.34 92.41 0.28"/><polygon class="cls-3" points="462.22 320.11 369.81 160.05 554.63 160.05 462.22 320.11"/><polygon class="cls-3" points="184.81 160.34 92.41 0.28 277.22 0.28 184.81 160.34"/><polygon class="cls-3" points="92.41 320.11 0 160.05 184.81 160.05 92.41 320.11"/><polygon class="cls-4" points="277.4 320.11 185 160.05 369.81 160.05 277.4 320.11"/></g></g></svg>