<svg xmlns="http://www.w3.org/2000/svg" xmlns:xlink="http://www.w3.org/1999/xlink" width="118.976" height="132.896" viewBox="0 0 118.976 132.896">
  <defs>
    <linearGradient id="linear-gradient" x1="33.796" y1="-0.061" x2="33.796" y2="1.356" gradientUnits="objectBoundingBox">
      <stop offset="0.019" stop-color="#f0d0b4"/>
      <stop offset="1" stop-color="#b34a26"/>
    </linearGradient>
  </defs>
  <g id="panacek" transform="translate(904.5 1849)">
    <g id="Group_15" data-name="Group 15" transform="translate(-904.5 -1849)">
      <path id="Path_2" data-name="Path 2" d="M592.841,665.537H540l5.07-22.837h42.7Z" transform="translate(-507.222 -562.166)" fill="#543e36"/>
      <path id="Path_3" data-name="Path 3" d="M447.613,711.3H419.739L381,729.547v21.6H486.353v-21.6Z" transform="translate(-374.477 -619.438)" fill="#f0d0b4"/>
      <g id="Group_6" data-name="Group 6" transform="translate(39.846 58.175)">
        <path id="Path_4" data-name="Path 4" d="M621.506,565.211H582.8l6.027-57.911h26.652Z" transform="translate(-582.8 -507.3)" fill="#f0d0b4"/>
        <path id="Path_5" data-name="Path 5" d="M639.731,530.286,637.336,507.3H610.7L609,523.681S627.131,537.453,639.731,530.286Z" transform="translate(-604.674 -507.3)" fill="#dfb28b"/>
      </g>
      <path id="Path_6" data-name="Path 6" d="M419.755,731c-1.057,4.607-9.181,8.19-19.056,8.19s-18-3.583-19.056-8.19l-29.707,13.706a11.627,11.627,0,0,0-6.523,7.778l-3.914,16.3H459.914l-3.781-15.77a12.774,12.774,0,0,0-7.15-8.537Z" transform="translate(-341.5 -635.885)" fill="#fff"/>
      <path id="Path_7" data-name="Path 7" d="M573.8,768.782h80.038l-3.781-15.77a12.774,12.774,0,0,0-7.15-8.537L613.7,731c-.727,3.2-4.9,5.928-10.717,7.266l-13.607,25.116,3.22-18.329C592.608,745.052,580.768,762.011,573.8,768.782Z" transform="translate(-535.44 -635.885)" fill="#bec9cb"/>
      <g id="Group_7" data-name="Group 7" transform="translate(35.948 47.947)">
        <path id="Path_8" data-name="Path 8" d="M565.158,449.4l-2.675-1.7a1.987,1.987,0,0,0-2.923.71l-.165.33a2.172,2.172,0,0,0,.049,1.915l3.682,7.216a2.311,2.311,0,0,0,.974.974l.611.314a2.013,2.013,0,0,0,2.411-.363l.4-.429a1.941,1.941,0,0,0,.4-1.866l-1.783-5.813A2.3,2.3,0,0,0,565.158,449.4Z" transform="translate(-559.196 -447.013)" fill="#ebc19c"/>
        <path id="Path_9" data-name="Path 9" d="M794.695,448.258l2.279-2.229a2.082,2.082,0,0,1,3.071.017l.231.281a2.064,2.064,0,0,1,.363,1.866l-2.13,7.728a2.264,2.264,0,0,1-.76,1.156l-.545.429a2.07,2.07,0,0,1-2.46.165l-.479-.33a1.874,1.874,0,0,1-.793-1.7l.529-5.961A2.321,2.321,0,0,1,794.695,448.258Z" transform="translate(-754.782 -445.362)" fill="#ebc19c"/>
      </g>
      <path id="Path_10" data-name="Path 10" d="M609.784,241.1H592.33L581.2,257.63l2.593,35.536,11.047,11.609h12.055l11.113-11.609,2.807-35.536Z" transform="translate(-541.618 -226.882)" fill="#f0d0b4"/>
      <g id="Group_8" data-name="Group 8" transform="translate(56.177 43.743)">
        <path id="Path_11" data-name="Path 11" d="M687.314,431.74h-.661l1.338-11.84H681.75l1.272,11.84h-.644l-.677,3.5,1.024.594.892,1.569h2.411l1.04-1.569.892-.594Z" transform="translate(-681.7 -419.9)" fill="url(#linear-gradient)"/>
        <path id="Path_12" data-name="Path 12" d="M683.615,509.249h2.411l1.024-1.569.892-.594a4.887,4.887,0,0,0-6.242,0l1.024.594Z" transform="translate(-681.7 -491.745)" fill="#9a714a"/>
        <path id="Path_13" data-name="Path 13" d="M693.316,499.937a1.856,1.856,0,1,1-1.8-1.437A1.641,1.641,0,0,1,693.316,499.937Z" transform="translate(-688.379 -485.521)" fill="#efc7b1" opacity="0.5"/>
      </g>
      <g id="Group_9" data-name="Group 9" transform="translate(41.15 52.247)">
        <path id="Path_14" data-name="Path 14" d="M736.8,497.128,747.93,485.5l1.106-14C740.714,473.861,736.8,497.128,736.8,497.128Z" transform="translate(-712.675 -471.483)" fill="#ebc19c"/>
        <path id="Path_15" data-name="Path 15" d="M590.7,471.4l1.024,14.036,11.064,11.625C599.419,481.39,594.3,474.372,590.7,471.4Z" transform="translate(-590.7 -471.4)" fill="#ebc19c"/>
      </g>
      <path id="Path_16" data-name="Path 16" d="M634.408,409.8l-2.708,1.371,5.086,2.873,1.057,1.007,2.873-5.251Z" transform="translate(-583.779 -367.725)" fill="#dfb28b"/>
      <path id="Path_17" data-name="Path 17" d="M717.99,412.532l5.78-.132-4.657,4.26-1.057.561-2.956-3.831Z" transform="translate(-653.408 -369.896)" fill="#dfb28b"/>
      <g id="Group_12" data-name="Group 12" transform="translate(45.146 41.728)">
        <g id="Group_10" data-name="Group 10">
          <path id="Path_18" data-name="Path 18" d="M626.013,407.783l-.479,2.048-.264-2.064-7.414-.066-2.956,2.708s4.442-3.831,8.091.066l3.748.033.429-2.725Z" transform="translate(-614.9 -407.7)" fill="#a46c35"/>
        </g>
        <g id="Group_11" data-name="Group 11" transform="translate(16.15)">
          <path id="Path_19" data-name="Path 19" d="M713.856,407.783l.462,2.048.281-2.064,7.414-.066,2.939,2.708s-4.409-3.831-8.091.066l-3.748.033-.413-2.725Z" transform="translate(-712.7 -407.7)" fill="#a46c35"/>
        </g>
      </g>
      <g id="Group_13" data-name="Group 13" transform="translate(46.963 45.163)">
        <path id="Path_20" data-name="Path 20" d="M729.389,429.061l.611,1.271h3.98l.628-.908.033.908h1.139l-.793-1.453-5.7-.38-1.09,1.833h1.04Z" transform="translate(-711.307 -428.5)" fill="#553f37"/>
        <path id="Path_21" data-name="Path 21" d="M632.291,429.061l-.611,1.271H627.7l-.628-.908-.033.908H625.9l.809-1.453,5.7-.38,1.073,1.833h-1.04Z" transform="translate(-625.9 -428.5)" fill="#553f37"/>
      </g>
      <path id="Path_22" data-name="Path 22" d="M668.537,539.705a46.174,46.174,0,0,1-6.737-.165l5.647-1.04.809.281.727-.281,7.068.264A67.123,67.123,0,0,1,668.537,539.705Z" transform="translate(-608.909 -475.173)" fill="#dfb28b"/>
      <path id="Path_23" data-name="Path 23" d="M658.938,527.9l-6.357,1.767-.281,1.156,7.6-1.6Z" transform="translate(-600.978 -466.323)" fill="#c1a68e"/>
      <path id="Path_24" data-name="Path 24" d="M705.163,526.4l-.363,1.288,7.844.33-.71-1.915Z" transform="translate(-644.808 -464.82)" fill="#c1a68e"/>
      <path id="Path_25" data-name="Path 25" d="M685.457,561.617c-.017.892-1.849,1.6-4.079,1.6-2.246,0-4.062-.71-4.079-1.6S679.116,560,681.378,560C683.657,559.982,685.473,560.709,685.457,561.617Z" transform="translate(-621.849 -493.121)" fill="#ebc19c"/>
      <path id="Path_26" data-name="Path 26" d="M694.866,561.527c0,.4-.826.727-1.833.727s-1.833-.33-1.833-.727.809-.727,1.833-.727S694.883,561.114,694.866,561.527Z" transform="translate(-633.454 -493.79)" fill="#c1a68e"/>
      <path id="Path_27" data-name="Path 27" d="M749.2,515l.974,5.466A4.043,4.043,0,0,0,749.2,515Z" transform="translate(-681.877 -455.553)" fill="#dfb28b"/>
      <path id="Path_28" data-name="Path 28" d="M621.1,241.988l-5.763-2.048-5.4-7.068L593.556,229.9l-11.724,9.858L579.9,251.119c.5,1.734,2.626,32.679,2.626,32.679L593.7,295.423h12.17L617.12,283.8l1.965-24.555s.231-5.631.4-7.629c.016-.182.05-.4.083-.611Zm-3.435,19.948c-.363,3.666-1.288,12.253-1.982,14.779-.875,3.137-3.98,6.605-3.98,6.605a14.643,14.643,0,0,1-1.255,4.442c-.908,1.618-3.7,3.484-3.7,3.484a2.871,2.871,0,0,1-2.741,2.18,39.351,39.351,0,0,1-5.1-1.849,19.664,19.664,0,0,1-3.9,1.338c-1.453.215-2.328-1.734-2.328-1.734a10.577,10.577,0,0,1-4.128-2.477,4.747,4.747,0,0,1-1.4-4.624s-2.939-3.583-3.616-5.912c-.5-1.684-1.767-17.339-1.767-17.339.71-6.82,1.618-7.431,1.618-7.431-.644-4.31.2-7.778,3.715-10.337,3.567-2.593,14.878,2.114,14.878,2.114,4.062-2.328,10.965-1.106,10.965-1.106l.925-2.361-.149,2.692c5.251-.446,3.1,9,3.1,9C618.92,254.422,617.665,261.935,617.665,261.935Z" transform="translate(-540.533 -217.532)" fill="#ac8457"/>
      <path id="Path_29" data-name="Path 29" d="M550.24,190.866c-.644-4.31.2-7.778,3.715-10.337,3.567-2.593,14.878,2.114,14.878,2.114,4.062-2.328,10.965-1.106,10.965-1.106l.925-2.361-.149,2.692c5.251-.446,3.1,9,3.1,9l2.675-2.048c.446-3.154,4.376-10.651,4.376-10.651s-2.361-5.5-6.473-4c0,0-3.947-19.172-11.394-19.172a22.408,22.408,0,0,0-9.99,2.725c3.633-.826,9.049-1.75,10.469-.33,2.18,2.18,2.163,6.572,2.163,6.572s-7.86-4.392-14.862-4.987a40.665,40.665,0,0,0-13.359,13.8c-4.161.842-7.084,6.391-7.084,6.391s5.614,6.126,6.539,9.429Z" transform="translate(-507.389 -155)" fill="#8e572a"/>
      <path id="Path_30" data-name="Path 30" d="M642.729,287.756c-11.163-3.9-5.928,13.045-5.928,13.045-2.015-15.473,6.06-12.451,6.06-12.451Z" transform="translate(-587.015 -265.348)" fill="#ac8457"/>
      <g id="Group_14" data-name="Group 14" transform="translate(0 91.647)">
        <path id="Path_31" data-name="Path 31" d="M381.709,715.881a1.724,1.724,0,0,1-.066-.281l-29.707,14.631a12.27,12.27,0,0,0-6.523,8.306L341.5,755.925h40.209Z" transform="translate(-341.5 -714.675)" fill="#543e36"/>
        <path id="Path_32" data-name="Path 32" d="M816.3,751.249h40.572l-3.831-17.256a13.709,13.709,0,0,0-7.249-9.33L816.3,710Z" transform="translate(-737.896 -710)" fill="#543e36"/>
      </g>
      <path id="Path_33" data-name="Path 33" d="M627.3,442.938c4.739,2.1,6.869-1.338,6.869-1.338Z" transform="translate(-580.106 -394.274)" fill="#ebc19c"/>
    </g>
  </g>
</svg>
